<?xml version="1.0" encoding="UTF-8" standalone="no"?>
<!-- Created with Inkscape (http://www.inkscape.org/) -->

<svg
   xmlns:dc="http://purl.org/dc/elements/1.1/"
   xmlns:cc="http://creativecommons.org/ns#"
   xmlns:rdf="http://www.w3.org/1999/02/22-rdf-syntax-ns#"
   xmlns:svg="http://www.w3.org/2000/svg"
   xmlns="http://www.w3.org/2000/svg"
   xmlns:xlink="http://www.w3.org/1999/xlink"
   xmlns:sodipodi="http://sodipodi.sourceforge.net/DTD/sodipodi-0.dtd"
   xmlns:inkscape="http://www.inkscape.org/namespaces/inkscape"
   version="1.1"
   id="svg10"
   width="110.05909"
   height="109.98166"
   viewBox="0 0 110.05909 109.98166"
   sodipodi:docname="google4.svg"
   inkscape:version="0.92.1 r15371">
  <metadata
     id="metadata16">
    <rdf:RDF>
      <cc:Work
         rdf:about="">
        <dc:format>image/svg+xml</dc:format>
        <dc:type
           rdf:resource="http://purl.org/dc/dcmitype/StillImage" />
        <dc:title></dc:title>
      </cc:Work>
    </rdf:RDF>
  </metadata>
  <defs
     id="defs14" />
  <sodipodi:namedview
     pagecolor="#ffffff"
     bordercolor="#666666"
     borderopacity="1"
     objecttolerance="10"
     gridtolerance="10"
     guidetolerance="10"
     inkscape:pageopacity="0"
     inkscape:pageshadow="2"
     inkscape:window-width="1338"
     inkscape:window-height="786"
     id="namedview12"
     showgrid="false"
     inkscape:zoom="2.7116282"
     inkscape:cx="108.32426"
     inkscape:cy="102.47972"
     inkscape:window-x="5"
     inkscape:window-y="16"
     inkscape:window-maximized="0"
     inkscape:current-layer="svg10"
     fit-margin-top="0"
     fit-margin-left="0"
     fit-margin-right="0"
     fit-margin-bottom="0" />  
  <path
     style="fill:#7e7e7e"
     d="m 9.0871114,107.33908 c -1.855748,-1.25058 -4.410589,-3.81186 -5.677426,-5.69172 l -2.303339,-3.417931 0.279542,-44.058281 0.279543,-44.05827 2.401069,-3.3665286 c 1.320588,-1.85159 4.245588,-4.20421 6.4999996,-5.22804 3.784188,-1.71857008 7.292706,-1.86319998 45.691648,-1.88346998 41.508368,-0.0219 41.601547,-0.0173 45.947272,2.28077998 2.97633,1.57392 5.08336,3.68095 6.65728,6.65728 2.29704,4.3437686 2.30274,4.4575086 2.30274,45.9853686 0,41.186392 -0.024,41.678372 -2.25,46.084652 -1.2375,2.4496 -3.77905,5.46995 -5.64788,6.71189 -3.397514,2.25782 -3.402784,2.25807 -47.102128,2.25807 H 12.461198 Z M 58.356355,91.200518 c 5.080016,-2.15415 10.6321,-8.12735 11.410358,-12.27582 1.290845,-6.8808 -0.103511,-10.39879 -6.568647,-16.57287 -3.317949,-3.16857 -6.032634,-6.47746 -6.032634,-7.35307 0,-0.87561 2.01077,-3.82849 4.468379,-6.56194 6.597096,-7.33756 7.299405,-15.38117 1.902937,-21.79451 l -2.549103,-3.02943 h 2.978109 c 1.637961,0 4.040463,-0.92398 5.338894,-2.05329 l 2.360784,-2.05328 -13.5,0.38373 c -17.002143,0.48329 -21.798199,2.49181 -26.10641,10.933 -4.99737,9.79148 0.914697,20.89959 11.898901,22.3567 4.46595,0.59243 4.71057,0.78633 4.767161,3.7788 0.03281,1.73489 0.394953,3.88059 0.804764,4.76824 0.616088,1.33444 -0.147233,1.73228 -4.408153,2.29751 -2.834296,0.37598 -6.903211,1.38379 -9.042034,2.23958 -4.371948,1.74931 -9.568548,7.12352 -10.508188,10.86735 -1.488621,5.93113 3.185221,12.64121 10.428014,14.97114 5.661768,1.82133 17.014946,1.36336 22.356868,-0.90184 z m -15.450399,-3.01696 c -4.924598,-1.75728 -6.753213,-3.35987 -8.441011,-7.39766 -1.234736,-2.95391 -1.189333,-3.73885 0.404904,-7 2.186005,-4.47167 5.960309,-6.41764 13.545887,-6.98407 5.421085,-0.4048 6.005707,-0.2201 10.211297,3.22607 3.099991,2.54021 4.652347,4.67545 5.088197,6.99873 1.727883,9.21041 -9.457736,15.2076 -20.809274,11.15693 z m 2.468594,-39.13677 c -3.563275,-2.49581 -6.556281,-9.30579 -6.637078,-15.10133 -0.05789,-4.15249 0.404113,-5.67465 2.352274,-7.75 4.271963,-4.55086 11.297903,-2.92112 14.554281,3.37602 2.478816,4.7935 3.550177,11.35332 2.48456,15.21267 -1.486713,5.38443 -8.030161,7.57138 -12.754037,4.26264 z m 42.790882,-8.43391 v -5 h 5 c 4.666667,0 5,-0.16667 5,-2.5 0,-2.33334 -0.333333,-2.5 -5,-2.5 h -5 v -5 c 0,-4.66667 -0.166667,-5 -2.5,-5 -2.333333,0 -2.5,0.33333 -2.5,5 v 5 h -5 c -4.666667,0 -5,0.16666 -5,2.5 0,2.33333 0.333333,2.5 5,2.5 h 5 v 5 c 0,4.66666 0.166667,5 2.5,5 2.333333,0 2.5,-0.33334 2.5,-5 z"
     id="path54"
     inkscape:connector-curvature="0" />
  <path
     style="fill:#000000"
     d="m 139.2672,-133.84443 c -1.85575,-1.25058 -4.41059,-3.81186 -5.67743,-5.69172 l -2.30334,-3.41792 0.27955,-44.05828 0.27954,-44.05828 2.40107,-3.36653 c 1.32059,-1.85159 4.24559,-4.20421 6.5,-5.22804 3.78418,-1.71857 7.2927,-1.86319 45.69164,-1.88347 41.50837,-0.0219 41.60155,-0.0173 45.94727,2.28078 2.97633,1.57392 5.08336,3.68095 6.65728,6.65728 2.29704,4.34378 2.30274,4.45751 2.30274,45.98538 0,41.18639 -0.024,41.67837 -2.25,46.08464 -1.2375,2.4496 -3.77905,5.46995 -5.64788,6.71189 -3.39751,2.25782 -3.40277,2.25807 -47.10212,2.25807 h -43.70424 z m 49.26924,-16.13856 c 5.08002,-2.15415 10.6321,-8.12735 11.41036,-12.27582 1.29085,-6.88079 -0.10351,-10.39879 -6.56865,-16.57286 -3.31795,-3.16858 -6.03263,-6.47746 -6.03263,-7.35307 0,-0.87562 2.01077,-3.82849 4.46838,-6.56194 6.5971,-7.33756 7.2994,-15.38117 1.90293,-21.79451 l -2.5491,-3.02944 h 2.97811 c 1.63796,0 4.04047,-0.92398 5.3389,-2.05328 l 2.36078,-2.05329 -13.5,0.38374 c -17.00215,0.48328 -21.7982,2.4918 -26.10641,10.93299 -4.99737,9.79148 0.91469,20.8996 11.8989,22.3567 4.46595,0.59243 4.71057,0.78634 4.76716,3.77881 0.0328,1.73488 0.39495,3.88059 0.80476,4.76824 0.61609,1.33444 -0.14723,1.73227 -4.40815,2.29751 -2.8343,0.37598 -6.90321,1.38379 -9.04203,2.23958 -4.37195,1.7493 -9.56855,7.12352 -10.50819,10.86734 -1.48862,5.93114 3.18522,12.64121 10.42801,14.97115 5.66177,1.82133 17.01495,1.36336 22.35687,-0.90185 z m -15.4504,-3.01695 c -4.9246,-1.75729 -6.75321,-3.35988 -8.44101,-7.39766 -1.23474,-2.95391 -1.18933,-3.73885 0.4049,-7 2.18601,-4.47167 5.96031,-6.41765 13.54589,-6.98407 5.42109,-0.4048 6.00571,-0.2201 10.2113,3.22606 3.09999,2.54021 4.65235,4.67545 5.0882,6.99874 1.72788,9.21041 -9.45774,15.2076 -20.80928,11.15693 z m 2.4686,-39.13677 c -3.56328,-2.49582 -6.55629,-9.3058 -6.63708,-15.10133 -0.0579,-4.1525 0.40411,-5.67465 2.35227,-7.75 4.27196,-4.55086 11.2979,-2.92112 14.55428,3.37602 2.47882,4.7935 3.55018,11.35332 2.48456,15.21266 -1.48671,5.38443 -8.03016,7.57138 -12.75403,4.26265 z m 42.79088,-8.43392 v -5 h 5 c 4.66667,0 5,-0.16667 5,-2.5 0,-2.33333 -0.33333,-2.5 -5,-2.5 h -5 v -5 c 0,-4.66667 -0.16667,-5 -2.5,-5 -2.33333,0 -2.5,0.33333 -2.5,5 v 5 h -5 c -4.66667,0 -5,0.16667 -5,2.5 0,2.33333 0.33333,2.5 5,2.5 h 5 v 5 c 0,4.66667 0.16667,5 2.5,5 2.33333,0 2.5,-0.33333 2.5,-5 z"
     id="path52"
     inkscape:connector-curvature="0" />
  <g
     id="g36"
     transform="translate(-11.635602,-242.20185)">
    <path
       style="fill:#cecece"
       d="M 10.071102,110.24845 C 8.1852088,109.2868 5.2602088,106.7712 3.5711025,104.65822 L 0.5,100.81643 0.21887534,57.788236 C -0.05742467,15.498487 -0.02531207,14.683736 2.0900239,10.314036 3.3973551,7.6134495 5.833871,4.8143381 8.2964239,3.1840162 L 12.350551,0.5 53.425275,0.19885583 C 82.634698,-0.01529648 95.719753,0.23667331 98.722483,1.0711126 104.02558,2.5448099 109.58985,7.861681 110.94836,12.7534 c 0.64096,2.307977 1.04263,19.214164 1.04606,44.028719 0.005,33.996962 -0.23441,40.856503 -1.53256,43.963401 -1.9848,4.7503 -4.08929,7.02196 -8.67202,9.36089 -3.467737,1.76986 -6.473442,1.89349 -46.000002,1.89204 -38.285746,-0.001 -42.614493,-0.1671 -45.718736,-1.75 z M 55.568499,92.486382 C 64.450891,89.760124 69,84.240326 69,76.188868 69,70.692236 68.947471,70.595693 62.5,64.242639 58.925,60.719991 56,57.152932 56,56.315842 56,55.478751 58.01077,52.557398 60.468379,49.823947 67.023558,42.53301 67.76666,34.441439 62.460209,28.135081 59.283344,24.359591 59.35119,24.003057 63.25,23.984687 65.0375,23.976265 67.175,23.504525 68,22.936376 69.057378,22.208196 65.811481,22.002178 57,22.238204 46.439699,22.521073 43.845785,22.916969 40.284042,24.789472 34.206446,27.984627 31,33.158774 31,39.770857 c 0,4.766866 0.388059,5.722609 3.815423,9.396923 3.296902,3.534452 4.520013,4.158036 9,4.588506 L 49,54.254459 v 3.67277 c 0,2.020024 0.50079,4.173561 1.112868,4.785639 C 51.849717,64.449717 50.203576,66 46.622484,66 42.27888,66 33.994712,68.604235 31.469243,70.763618 22.819687,78.15935 24.775684,88.706341 35.5,92.49799 c 5.285471,1.868711 13.958598,1.863694 20.068499,-0.01161 z M 40.208535,89.332244 C 35.575306,87.048734 33,83.388771 33,79.087648 33,72.312631 37.659877,68.527567 47.411799,67.38142 c 5.069871,-0.595863 5.96371,-0.393194 9.707129,2.200997 5.061225,3.507431 6.983509,6.315689 7.098799,10.370607 0.203011,7.140128 -5.086987,11.062287 -14.868856,11.024206 -3.330862,-0.01297 -7.265886,-0.721153 -9.140336,-1.644986 z m 5.177974,-38.19572 C 41.138534,48.488139 38,41.677331 38,35.107353 38,30.625677 38.433096,29.413058 40.923077,26.923077 48.535843,19.310311 59,28.398137 59,42.622375 c 0,8.00314 -7.205167,12.509396 -13.613491,8.514149 z M 87.195209,41.25 87.5,36.5 92.75,36.19774 C 96.430838,35.985823 98,35.478388 98,34.5 98,33.521612 96.430838,33.014177 92.75,32.80226 L 87.5,32.5 87,27 c -0.275,-3.025 -0.95,-5.5 -1.5,-5.5 -0.55,0 -1.225,2.475 -1.5,5.5 l -0.5,5.5 -4.75,0.304791 C 75.506965,33.012886 74,33.550701 74,34.5 c 0,0.949299 1.506965,1.487114 4.75,1.695209 L 83.5,36.5 83.804791,41.25 C 84.012886,44.493035 84.550701,46 85.5,46 c 0.949299,0 1.487114,-1.506965 1.695209,-4.75 z"
       id="path50"
       inkscape:connector-curvature="0" />
    <path
       style="fill:#b0b0b0"
       d="M 10.5,110.11927 C 8.3,109.10902 5.6697136,107.3487 4.6549191,106.20743 0.35801373,101.37499 0.08993073,98.468625 0.04389282,56.217881 -0.00328733,12.918853 0.12358884,11.710201 5.2977278,6.1686333 10.16141,0.95956798 9.7624219,1 56.302457,1 h 43.401777 l 3.374086,2.2737966 c 1.85575,1.2505882 4.3973,3.7921356 5.64788,5.6478832 L 111,12.295766 110.9835,55.897883 c -0.0163,43.268903 -0.0335,43.632112 -2.25,47.527097 -1.39243,2.44688 -3.89327,4.80055 -6.64083,6.25 L 97.685433,112 56.092716,111.97804 C 17.87804,111.95786 14.175132,111.8069 10.5,110.11927 Z M 56.38398,92.770163 C 61.762255,91.163174 68.50454,84.454568 69.368214,79.850789 70.558027,73.508537 69.091737,69.952826 62.829012,63.993419 55.959242,57.456367 55.434948,54.862137 60.089276,50.437091 64.445789,46.295191 66,42.836036 66,37.281794 66,33.790856 65.311583,31.451172 63.5,28.785188 62.125,26.761694 61,24.857233 61,24.553054 61,24.248874 62.548442,24 64.440983,24 66.333524,24 68.160081,23.55 68.5,23 c 0.398973,-0.645552 -3.567643,-0.992216 -11.190983,-0.978038 -9.288054,0.01727 -12.67176,0.413852 -15.850387,1.857702 -4.969714,2.257427 -9.017824,6.917017 -10.601515,12.202907 -1.032398,3.445838 -0.930132,4.634346 0.746965,8.681008 C 34.073824,50.722815 38.691107,54 44.617432,54 c 4.241838,0 4.319389,0.06056 4.198412,3.278542 -0.06779,1.803198 0.387782,4.23342 1.01238,5.400492 1.082414,2.022509 0.824954,2.176052 -5.493891,3.276432 -12.179208,2.120917 -18.322457,7.220959 -18.330595,15.217809 -0.0044,4.312753 3.734287,9.367536 8.446685,11.420129 3.867311,1.684495 16.545517,1.786667 21.933557,0.176759 z m -16.172091,-3.89431 c -9.037638,-4.473537 -9.619082,-14.586823 -1.08884,-18.938628 2.05091,-1.046296 6.18127,-2.190581 9.178578,-2.542856 l 5.449651,-0.640499 5.124361,4.939227 C 63.103165,75.76789 64,77.238105 64,80.093656 c 0,6.775991 -5.378896,10.906868 -14.20034,10.905555 -3.386821,-5.04e-4 -6.847394,-0.7669 -9.587771,-2.123358 z M 43.209451,48.58577 c -3.855093,-4.390708 -5.571372,-9.682461 -4.944401,-15.244929 0.576103,-5.111171 2.760641,-7.967936 6.765653,-8.847585 6.705267,-1.472723 12.734535,5.826187 13.71135,16.598686 0.470914,5.193316 0.275262,5.981652 -2.065478,8.322392 -3.96814,3.96814 -9.557497,3.624255 -13.467124,-0.828564 z M 88,41.491319 88.5,36.5 93.312282,36.192665 c 3.890473,-0.248464 4.750741,-0.631571 4.491006,-2 -0.236964,-1.248456 -1.551653,-1.772088 -5.009641,-1.995306 L 88.105283,31.894717 87.802641,27.206353 C 87.575219,23.683241 87.065053,22.435394 85.75,22.18567 84.271565,21.904921 84,22.632519 84,26.874416 v 5.021065 l -5.240634,0.302259 c -3.981843,0.229658 -5.318028,0.709531 -5.56284,1.997821 -0.26471,1.392997 0.625841,1.749887 4.990634,2 L 83.5,36.5 l 0.304439,5.31284 c 0.250095,4.364464 0.607107,5.255447 2,4.991319 C 87.042907,46.569314 87.634791,45.137066 88,41.491319 Z"
       id="path48"
       inkscape:connector-curvature="0" />
    <path
       style="fill:#8d8d8d"
       d="M 12.093906,110.70848 C 6.7022084,108.98727 2.344164,103.91411 1.0045448,97.799449 0.1985374,94.120447 -0.05610797,80.421825 0.17176232,53 0.45823279,18.52625 0.71059172,13.11826 2.154986,10.5 4.2993406,6.6129195 7.7843854,3.4043639 11.3151,2.0666124 c 1.834694,-0.695147 17.506687,-1.0608833 45,-1.050162 41.910615,0.016343 42.210775,0.031105 46.16452,2.2703822 2.23134,1.2637655 4.96978,4.0022026 6.23355,6.2335496 2.2395,3.9541458 2.25403,4.2502488 2.27038,46.2617368 0.013,33.477936 -0.26757,42.961883 -1.34758,45.546691 -1.73906,4.16217 -6.65005,8.30326 -11.417025,9.62718 -5.136668,1.4266 -81.568978,1.20694 -86.125039,-0.24751 z M 58.5,92.095342 c 5.148136,-2.267437 10.215555,-8.0622 11.080063,-12.670422 1.125787,-6.000962 -0.999607,-10.808532 -7.11092,-16.084655 -6.714671,-5.797026 -6.920337,-7.810592 -1.408529,-13.790197 2.233337,-2.422885 4.502562,-6.00585 5.042721,-7.962145 C 67.283291,37.314475 65.955198,31.484054 62.924029,27.630547 60.857451,25.00332 60.857396,25 62.880367,25 c 2.249501,0 7.11854,-1.989926 7.121578,-2.910515 C 70.003015,21.765268 63.780925,21.725 56.175079,22 c -12.524044,0.452824 -14.160297,0.72737 -17.342122,2.909824 -13.723054,9.412814 -10.251629,27.255295 5.770232,29.657921 3.727554,0.558981 4.361538,0.968031 3.875212,2.500308 -0.319798,1.007594 0.107137,3.163573 0.948746,4.791064 l 1.530196,2.959074 -5.228671,0.696717 C 30.513848,67.542272 22.013856,76.622253 26.762553,85.77516 c 2.128391,4.102382 6.616466,7.185906 12.142534,8.342505 C 43.989729,95.181874 53.788175,94.17061 58.5,92.095342 Z M 42.604322,89.96157 c -3.898578,-1.166639 -8.367196,-5.605457 -9.127369,-9.066501 -1.353427,-6.162114 3.709583,-11.279431 12.811505,-12.948921 5.222158,-0.957858 6.12298,-0.854984 9.207776,1.051525 7.784842,4.811296 10.558056,11.624404 6.873073,16.885454 -3.140182,4.483239 -12.179314,6.348436 -19.764985,4.078443 z M 44.166048,49.486266 C 41.024389,46.842735 38,39.625622 38,34.772201 c 0,-4.200975 2.485521,-8.316456 5.869125,-9.717991 7.228371,-2.994089 14.526648,5.647305 14.596057,17.282203 0.02953,4.950203 -0.323647,6.126974 -2.325966,7.75 -3.331158,2.700146 -8.349959,2.448583 -11.973168,-0.600147 z M 88,42 v -5 h 5 c 4.666667,0 5,-0.166667 5,-2.5 C 98,32.166667 97.666667,32 93,32 h -5 v -5.069551 c 0,-4.685327 -0.170529,-5.045332 -2.25,-4.75 -1.920075,0.272694 -2.294692,1.016058 -2.554791,5.069551 L 82.890418,32 h -5.01476 c -4.628507,0 -4.990147,0.173302 -4.695209,2.25 0.272694,1.920075 1.016058,2.294692 5.069551,2.554791 L 83,37.109582 v 4.278543 C 83,46.141548 83.484407,47 86.166667,47 87.7,47 88,46.181818 88,42 Z"
       id="path46"
       inkscape:connector-curvature="0" />
    <path
       style="fill:#6f6f6f"
       d="M 8.9216798,108.7262 C 7.0659322,107.47562 4.5110906,104.91434 3.2442539,103.03448 L 0.94091464,99.616557 1.2204573,55.558278 1.5,11.5 3.9010693,8.1334723 C 5.2216574,6.281882 8.1466574,3.9292649 10.401069,2.9054343 14.185256,1.1868635 17.693774,1.0422376 56.092716,1.021962 97.601084,1.000044 97.694263,1.00467 102.03998,3.3027388 c 2.99457,1.5835695 5.08311,3.6804761 6.68737,6.7141752 l 2.33282,4.411436 -0.28009,43.114764 -0.28008,43.114766 -2.80169,3.67211 C 102.47473,111.1764 103.85001,111 55.697543,111 H 12.295766 Z M 59.46262,91.56209 c 8.927367,-4.367754 13.000817,-13.897648 9.135433,-21.372477 -0.771071,-1.491087 -3.696071,-4.824315 -6.5,-7.407175 C 59.294124,60.199578 57,57.279205 57,56.292721 c 0,-0.986485 1.774757,-3.735165 3.943904,-6.108177 6.838412,-7.481114 7.7202,-15.002942 2.55299,-21.777503 L 60.898217,25 63.699109,24.977764 C 65.239599,24.965534 67.625,24.040922 69,22.923069 l 2.5,-2.032459 -13,0.338524 c -15.357,0.399901 -20.862727,2.339659 -25.186758,8.873712 -6.885818,10.405174 -1.547033,22.868672 10.479249,24.464015 4.46595,0.592429 4.71057,0.786333 4.767161,3.778806 0.03281,1.734883 0.400648,3.895433 0.817422,4.801222 0.634174,1.378275 -0.109524,1.76464 -4.559652,2.368826 -7.545153,1.024391 -12.337699,3.17388 -15.755368,7.06639 -5.182571,5.902623 -4.896338,12.63794 0.754404,17.751792 5.831457,5.277396 20.156862,5.870875 29.646162,1.228193 z M 42.583234,89.516614 C 34.217687,86.535848 31.137154,80.051075 35.212206,74 c 2.714992,-4.031511 7.082898,-5.861702 14.184802,-5.943558 4.169469,-0.04806 5.537974,0.468781 9.211297,3.478794 12.375626,10.140894 0.227252,23.772316 -16.025071,17.981378 z M 45.209118,50.433918 C 41.645843,47.938103 38.652837,41.128122 38.57204,35.332587 38.479131,28.668274 41.471224,25 47,25 c 9.566082,0 15.904634,19.791231 8.210685,25.636702 -2.350069,1.785462 -7.306419,1.684972 -10.001567,-0.202784 z M 88,42 v -5 h 5 c 4.666667,0 5,-0.166667 5,-2.5 C 98,32.166667 97.666667,32 93,32 h -5 v -5 c 0,-4.666667 -0.166667,-5 -2.5,-5 -2.333333,0 -2.5,0.333333 -2.5,5 v 5 h -5 c -4.666667,0 -5,0.166667 -5,2.5 0,2.333333 0.333333,2.5 5,2.5 h 5 v 5 c 0,4.666667 0.166667,5 2.5,5 2.333333,0 2.5,-0.333333 2.5,-5 z"
       id="path44"
       inkscape:connector-curvature="0" />
    <path
       style="fill:#4d4d4d"
       d="M 10.5,109.60442 C 6.8147275,107.94676 3.4828841,104.42285 2.0666124,100.6849 1.3727807,98.853677 1,83.199641 1,55.895062 1,16.11467 1.1029304,13.718564 2.968914,10.060934 4.0518167,7.938269 6.6393167,5.1436961 8.718914,3.8507717 12.499676,1.5002011 12.503422,1.4999735 52.5,1.1901987 c 22,-0.1703908 41.94754,-0.025063 44.327866,0.3229495 5.471764,0.7999932 11.715854,6.1837394 13.146734,11.3353088 0.61021,2.196896 1.00772,19.785332 0.99786,44.151543 -0.0183,45.29429 -0.13405,46.12645 -7.10593,51.09893 L 100.5,110.5 57,110.72692 c -34.742382,0.18124 -44.103974,-0.0448 -46.5,-1.1225 z M 59.411151,92.043011 C 66.323138,88.696975 70,83.213974 70,76.252731 70,70.905708 69.880471,70.681728 63.5,64.072708 59.925,60.369651 57,56.767023 57,56.066868 c 0,-0.700155 2.01077,-3.50947 4.468379,-6.242921 6.317388,-7.026456 7.271245,-15.071362 2.50534,-21.130229 C 61.435843,25.467333 61.488413,25 64.389216,25 c 1.314069,0 3.451569,-0.919556 4.75,-2.043457 L 71.5,20.913086 58,21.26366 c -11.500937,0.298661 -14.120756,0.673926 -17.692068,2.534226 -9.213929,4.799544 -13.116454,15.869628 -8.147005,23.110166 3.347717,4.877657 6.972657,7.239965 11.974837,7.803783 4.107659,0.462993 4.367743,0.676993 4.423888,3.640039 0.03281,1.731469 0.393353,3.870216 0.801211,4.75277 0.614631,1.329989 -0.165811,1.711121 -4.559653,2.226726 C 37.430825,66.196263 29.196366,70.61871 26.79852,75 c -3.928023,7.177195 -0.10059,15.275005 8.779386,18.574797 5.803716,2.156656 17.807656,1.385152 23.833245,-1.531786 z M 44.5,90.071287 C 37.569378,88.39872 34,84.707122 34,79.211752 c 0,-4.796168 1.586788,-7.120902 6.330682,-9.274804 8.579204,-3.895274 18.440859,-1.146993 22.238904,6.197616 2.051202,3.966587 1.780589,6.295827 -1.133862,9.759454 -3.668114,4.359306 -9.8565,5.885698 -16.935724,4.177269 z m 1.485558,-39.519841 c -3.994784,-2.17415 -7.253651,-8.96231 -7.345262,-15.300043 -0.06934,-4.797192 0.265354,-5.773496 2.69603,-7.864275 7.648206,-6.57871 16.589791,1.368108 16.641712,14.790292 0.01917,4.955848 -0.312916,5.940834 -2.612897,7.75 -3.031951,2.384933 -5.805097,2.569431 -9.379583,0.624026 z M 88,42 v -5 h 5 c 4.63679,0 5,-0.177625 5,-2.445209 0,-2.207647 -0.461482,-2.47482 -4.75,-2.75 L 88.5,31.5 88.195209,26.75 C 87.920029,22.461482 87.652856,22 85.445209,22 83.177625,22 83,22.36321 83,27 v 5 h -5 c -4.666667,0 -5,0.166667 -5,2.5 0,2.333333 0.333333,2.5 5,2.5 h 5 v 5 c 0,4.666667 0.166667,5 2.5,5 2.333333,0 2.5,-0.333333 2.5,-5 z"
       id="path42"
       inkscape:connector-curvature="0" />
    <path
       style="fill:#303030"
       d="M 9.9618898,108.75 C 6.702343,107.10631 4.8936937,105.29766 3.25,102.03811 1.0249573,97.625712 1,97.117891 1,56.255992 1,23.619814 1.2866699,14.249665 2.3640256,11.67119 3.9534622,7.8671328 8.9997252,3.3232101 12.827072,2.2497082 14.297182,1.8373687 34.175,1.5 57,1.5 c 45.50169,0 45.05912,-0.054188 49.90831,6.1105678 3.89415,4.9506112 4.18743,8.8133372 3.88382,51.1527342 -0.29015,40.460724 -0.30763,40.761622 -2.57984,44.415748 -1.34291,2.15965 -4.05447,4.53432 -6.56572,5.75 C 97.530522,110.92159 95.798356,111 55.896165,111 14.876473,111 14.375076,110.97544 9.9618898,108.75 Z M 55.117631,93.983968 c 9.053586,-2.514837 14.886178,-9.330026 14.87578,-17.381851 -0.0077,-5.97387 -1.547952,-8.697395 -8.259805,-14.605404 C 59.130123,59.705036 57,57.183216 57,56.39267 c 0,-0.790546 1.736123,-3.339802 3.858052,-5.665013 2.121928,-2.325211 4.371928,-5.210573 5,-6.411916 C 67.826279,40.551019 67.218378,34.048349 64.457846,29.337858 62.0249,25.186349 62.0014,25 63.910793,25 66.416547,25 71,22.956602 71,21.839485 71,20.630114 48.208238,20.814474 43.722666,22.060128 39.022464,23.365385 33.136853,28.428217 31.351044,32.702258 26.918784,43.310151 34.022572,55 44.901129,55 47.765905,55 48,55.259938 48,58.440983 c 0,1.892541 0.45,3.719098 1,4.059017 2.174887,1.344154 0.757621,2.24521 -4.362694,2.773673 -2.949482,0.304414 -7.690706,1.733172 -10.536054,3.175019 -12.267904,6.216617 -12.082427,19.021025 0.357378,24.671644 4.534715,2.059836 14.806678,2.489246 20.659001,0.863632 z M 40.5,88.517841 C 36.00735,86.154944 34,83.226498 34,79.035239 c 0,-4.690075 3.270338,-8.461348 8.627288,-9.948776 6.647296,-1.845709 10.884018,-1.36297 14.545987,1.657395 5.022066,4.142163 5.760298,5.394667 5.794922,9.831828 0.04975,6.376282 -3.195478,8.808836 -12.281477,9.205918 C 45.571297,90.005161 42.635365,89.64093 40.5,88.517841 Z M 44.397257,48.725248 C 35.463555,40.538121 37.378565,25 47.321296,25 c 8.239978,0 14.396157,18.373456 8.224159,24.545455 -3.369642,3.369641 -6.85619,3.113126 -11.148198,-0.820207 z M 88.804791,41.75 89.109582,37 h 4.945209 C 98.634859,37 99,36.819265 99,34.55226 c 0,-2.246754 -0.42982,-2.47256 -5.234594,-2.75 L 88.530812,31.5 l 0.253054,-4 C 89.083797,22.759028 87.962188,20.669923 85.380173,21.160288 83.925563,21.436542 83.386829,22.64711 83,26.508681 L 82.5,31.5 77.75,31.804791 C 73.461482,32.079971 73,32.347144 73,34.554791 73,36.822375 73.36321,37 78,37 h 5 v 5.066422 c 0,4.937048 0.07022,5.058343 2.75,4.75 2.518369,-0.28977 2.775672,-0.716512 3.054791,-5.066422 z"
       id="path40"
       inkscape:connector-curvature="0" />
    <path
       style="fill:#000000"
       d="M 13.158636,110.02615 C 7.9588672,108.76421 3.261977,103.54882 1.957283,97.588261 1.2100646,94.174557 0.95154829,79.500474 1.1717623,53 1.4823531,15.623616 1.6075248,13.317451 3.5,10.10453 4.6,8.2370222 6.769992,5.7620222 8.3222044,4.6045305 11.075276,2.5515526 12.209059,2.4931259 54.606547,2.2193792 103.22997,1.9054337 102.78728,1.8497937 107.56106,8.875053 L 110,12.464269 v 43.619982 c 0,43.599093 -0.001,43.621584 -2.2534,46.963799 -1.23937,1.8391 -3.82687,4.26815 -5.75,5.39788 -3.359862,1.97374 -5.099943,2.06066 -44.4966,2.2226 -22.55,0.0927 -42.503614,-0.19638 -44.341364,-0.64238 z M 58.5,93.037157 C 63.026544,91.292578 68.910377,85.046551 70.064383,80.760901 71.837833,74.174811 70.352214,70.136992 63.845994,63.859719 60.405992,60.540765 58,57.364894 58,56.143098 58,55.001112 60.025,51.786718 62.5,49 c 4.219414,-4.750835 4.499767,-5.423204 4.496262,-10.78338 -0.0025,-3.804699 -0.624854,-6.735147 -1.860866,-8.762003 l -1.857129,-3.045383 4.360867,-1.803672 C 70.03761,23.613542 72,22.396464 72,21.900945 72,21.405425 66.013355,21 58.696344,21 46.378193,21 45.006681,21.192356 40.181844,23.596674 27.754223,29.789618 26.02634,45.383835 36.951949,52.746602 38.918674,54.071977 41.813555,55 43.981217,55 c 3.325596,0 3.696819,0.268514 3.801888,2.75 0.06404,1.5125 0.251541,3.632894 0.416667,4.711988 0.255133,1.667291 -0.51291,2.08265 -5.113364,2.765318 C 32.422432,66.809747 25,73.357789 25,81.183067 c 0,4.704305 2.052114,8.067988 6.659225,10.915339 5.906737,3.650564 18.648352,4.0962 26.840775,0.938751 z M 42.332914,88.902705 C 38.163461,87.695586 34,82.671025 34,78.846352 34,73.165266 41.882141,68.021224 50.611163,68.005577 55.229373,67.997299 63,75.448801 63,79.885629 c 0,1.785219 -0.486221,4.154366 -1.080491,5.264771 -2.234851,4.175857 -11.796546,6.00764 -19.586595,3.752305 z M 47.5,51.054643 c -6.417461,-2.626616 -11.121837,-17.05695 -7.218197,-22.1413 5.440102,-7.085536 14.077238,-2.922095 16.710649,8.055191 1.805703,7.527018 0.68762,11.849367 -3.519887,13.607376 -1.87458,0.783249 -3.535281,1.395566 -3.690446,1.360704 C 49.626953,51.901751 48.6,51.504865 47.5,51.054643 Z m 41.302641,-8.252002 0.302642,-4.697358 4.697358,-0.302642 C 98.288008,37.513658 98.5,37.36461 98.5,34.5 c 0,-2.86461 -0.211992,-3.013658 -4.697359,-3.302641 L 89.105283,30.894717 88.802641,26.197359 C 88.513658,21.711992 88.36461,21.5 85.5,21.5 c -2.888889,0 -3,0.166667 -3,4.5 v 4.5 l -5,0.5 c -4.777778,0.477778 -5,0.633333 -5,3.5 0,2.902531 0.165773,3.009654 5.102317,3.297138 4.807418,0.279964 5.075421,0.437838 4.636955,2.731524 -0.255949,1.338912 -0.173797,3.596076 0.182561,5.015919 0.526609,2.098178 1.15629,2.522917 3.363045,2.268476 2.472246,-0.285053 2.742194,-0.73325 3.017763,-5.010416 z"
       id="path38"
       inkscape:connector-curvature="0" />
  </g>
  <g
     id="g20"
     transform="translate(-24.911752,-124.92913)">
    <path
       style="fill:#cecece"
       d="m 111.45759,56.5 c 2.5e-4,-23.1 0.13143,-32.407208 0.29152,-20.682684 0.16008,11.724523 0.15988,30.624523 -4.5e-4,42 C 111.58832,89.192792 111.45735,79.6 111.45759,56.5 Z m -42.262641,20 c 0.02038,-1.65 0.244498,-2.203936 0.498042,-1.230968 0.253543,0.972967 0.236869,2.322967 -0.03705,3 C 69.382014,78.946064 69.174569,78.15 69.194949,76.5 Z M 60.404988,72.75 58.5,70.5 60.75,72.404988 C 62.864445,74.195206 63.455241,75 62.654988,75 c -0.189757,0 -1.202257,-1.0125 -2.25,-2.25 z m 4,-7 L 62.5,63.5 64.75,65.404988 C 66.864445,67.195206 67.455241,68 66.654988,68 c -0.189757,0 -1.202257,-1.0125 -2.25,-2.25 z M 47.8125,65.316886 c 0.721875,-0.288871 1.584375,-0.253344 1.916667,0.07895 0.332291,0.332292 -0.258334,0.568641 -1.3125,0.52522 -1.164943,-0.04798 -1.4019,-0.284941 -0.604167,-0.604167 z M 56.157895,56 c 0,-1.375 0.226973,-1.9375 0.504386,-1.25 0.277412,0.6875 0.277412,1.8125 0,2.5 -0.277413,0.6875 -0.504386,0.125 -0.504386,-1.25 z M 48.75,52.337719 c 0.6875,-0.277412 1.8125,-0.277412 2.5,0 0.6875,0.277413 0.125,0.504386 -1.25,0.504386 -1.375,0 -1.9375,-0.226973 -1.25,-0.504386 z M 34.404988,49.75 32.5,47.5 34.75,49.404988 C 36.864445,51.195206 37.455241,52 36.654988,52 c -0.189757,0 -1.202257,-1.0125 -2.25,-2.25 z M 43,49.5 C 42.315311,48.675 41.980111,48 42.255111,48 c 0.275,0 1.0602,0.675 1.744889,1.5 0.684689,0.825 1.019889,1.5 0.744889,1.5 -0.275,0 -1.0602,-0.675 -1.744889,-1.5 z M 85.480397,46.324888 C 86.535946,45.997349 87,44.519562 87,41.485693 c 0,-2.402213 0.346463,-4.581785 0.769919,-4.843495 0.423455,-0.26171 0.535955,1.844545 0.25,4.680566 -0.401725,3.984191 -0.922205,5.192464 -2.289522,5.315031 -1.240317,0.111183 -1.315092,0.01759 -0.25,-0.312907 z M 30.194949,39.5 c 0.02038,-1.65 0.244498,-2.203936 0.498042,-1.230968 0.253543,0.972967 0.236869,2.322967 -0.03705,3 C 30.382014,41.946064 30.174569,41.15 30.194949,39.5 Z m 43.165834,-5.230397 c 0.123758,-1.393092 1.112738,-1.786982 4.648211,-1.851285 L 82.5,32.336637 78.31327,32.720525 c -2.54178,0.233061 -4.368044,0.960423 -4.648212,1.851285 -0.296877,0.943993 -0.405408,0.836199 -0.304275,-0.302207 z m 14.041198,-2.664442 c -0.294388,-0.767161 -0.355911,-3.129661 -0.136719,-5.25 0.383023,-3.705137 0.405074,-3.672447 0.566635,0.840048 L 88,31.890418 l 4.75,0.374543 4.75,0.374543 -4.781385,0.180248 c -3.298077,0.12433 -4.947433,-0.252466 -5.316634,-1.214591 z M 60.979944,26.475834 c -0.69572,-0.838291 -1.071285,-1.717826 -0.83459,-1.954522 0.236696,-0.236695 0.979634,0.44918 1.650975,1.524166 1.451813,2.324723 0.967628,2.57996 -0.816385,0.430356 z M 4,6.6224447 C 4,6.4147893 4.7875,5.6272893 5.75,4.8724447 7.3360556,3.6285741 7.3714259,3.6639444 6.1275553,5.25 4.8211855,6.915748 4,7.4454789 4,6.6224447 Z M 35.25,0.25113976 c 11.4125,-0.16044413 30.0875,-0.16044413 41.5,0 11.4125,0.16044413 2.075,0.2917166 -20.75,0.2917166 -22.825,0 -32.1625,-0.13127247 -20.75,-0.2917166 z"
       id="path34"
       inkscape:connector-curvature="0" />
    <path
       style="fill:#b0b0b0"
       d="m 105,107.62244 c 0,-0.20765 0.7875,-0.99515 1.75,-1.75 1.58606,-1.24387 1.62143,-1.2085 0.37756,0.37756 C 105.82119,107.91575 105,108.44548 105,107.62244 Z M 43.761659,94.292739 c 1.243913,-0.239193 3.043913,-0.230112 4,0.02018 C 48.717747,94.563212 47.7,94.758916 45.5,94.747817 43.3,94.736717 42.517747,94.531932 43.761659,94.292739 Z M 29,89.5 C 28.315311,88.675 27.980111,88 28.255111,88 c 0.275,0 1.0602,0.675 1.744889,1.5 0.684689,0.825 1.019889,1.5 0.744889,1.5 -0.275,0 -1.0602,-0.675 -1.744889,-1.5 z M 25.157895,81 c 0,-1.375 0.226973,-1.9375 0.504386,-1.25 0.277412,0.6875 0.277412,1.8125 0,2.5 -0.277413,0.6875 -0.504386,0.125 -0.504386,-1.25 z M 44.730968,54.344063 c 0.677033,-0.273923 2.027033,-0.290597 3,-0.03705 0.972968,0.25354 0.419032,0.477659 -1.230968,0.498038 -1.65,0.02038 -2.446064,-0.187065 -1.769032,-0.460988 z M 83.168103,41.804791 83,37.109582 78.25,36.735039 73.5,36.360496 78.281385,36.180248 c 5.432129,-0.20478 6.065223,0.545712 5.453353,6.464591 -0.383023,3.705137 -0.405074,3.672447 -0.566635,-0.840048 z M 66.157895,38 c 0,-1.375 0.226973,-1.9375 0.504386,-1.25 0.277412,0.6875 0.277412,1.8125 0,2.5 -0.277413,0.6875 -0.504386,0.125 -0.504386,-1.25 z M 91.26375,36.282419 c 1.520062,-0.229855 3.770062,-0.223712 5,0.01365 1.229937,0.237362 -0.01375,0.425424 -2.76375,0.417917 -2.75,-0.0075 -3.756313,-0.201713 -2.23625,-0.431567 z M 83.286014,27.5 c 0.0075,-2.75 0.201713,-3.756313 0.431567,-2.23625 0.229855,1.520062 0.223712,3.770062 -0.01365,5 C 83.466569,31.493687 83.278507,30.25 83.286014,27.5 Z M 61.730968,24.344063 c 0.677033,-0.273923 2.027033,-0.290597 3,-0.03705 C 65.703936,24.560557 65.15,24.784676 63.5,24.805055 61.85,24.825435 61.053936,24.61799 61.730968,24.344067 Z"
       id="path32"
       inkscape:connector-curvature="0" />
    <path
       style="fill:#8d8d8d"
       d="m 34.683033,111.25141 c 11.100669,-0.16082 29.550669,-0.16103 41,-4.7e-4 11.449332,0.16055 2.366967,0.29213 -20.183033,0.29239 -22.55,2.6e-4 -31.917635,-0.13111 -20.816967,-0.29192 z M 5,106.5 C 4.3153108,105.675 3.9801106,105 4.2551106,105 4.5301106,105 5.3153108,105.675 6,106.5 6.6846892,107.325 7.0198894,108 6.7448894,108 6.4698894,108 5.6846892,107.325 5,106.5 Z m -4.5442883,-50 c -2.7028e-4,-22 0.13149696,-31.142471 0.29281608,-20.316602 0.16131912,10.825869 0.16154026,28.825869 4.9142e-4,40 C 0.58797036,87.357529 0.45598198,78.5 0.4557117,56.5 Z M 49.75,67.337719 c 0.6875,-0.277412 1.8125,-0.277412 2.5,0 0.6875,0.277413 0.125,0.504386 -1.25,0.504386 -1.375,0 -1.9375,-0.226973 -1.25,-0.504386 z M 60,50.622445 c 0,-0.207656 0.7875,-0.995156 1.75,-1.75 C 63.336056,47.628574 63.371426,47.663944 62.127555,49.25 60.821186,50.915748 60,51.445479 60,50.622445 Z M 45.8125,24.316886 c 0.721875,-0.288871 1.584375,-0.253344 1.916667,0.07895 0.332291,0.332292 -0.258334,0.568641 -1.3125,0.52522 -1.164943,-0.04798 -1.4019,-0.284941 -0.604167,-0.604167 z M 53.75,21.262758 c 2.8875,-0.202002 7.6125,-0.202002 10.5,0 2.8875,0.202003 0.525,0.367277 -5.25,0.367277 -5.775,0 -8.1375,-0.165274 -5.25,-0.367277 z"
       id="path30"
       inkscape:connector-curvature="0" />
    <path
       style="fill:#6f6f6f"
       d="m 33.157895,79 c 0,-1.375 0.226973,-1.9375 0.504386,-1.25 0.277412,0.6875 0.277412,1.8125 0,2.5 -0.277413,0.6875 -0.504386,0.125 -0.504386,-1.25 z M 58.194949,42.5 c 0.02038,-1.65 0.244498,-2.203936 0.498042,-1.230968 0.253543,0.972967 0.236869,2.322967 -0.03705,3 C 58.382014,44.946064 58.174569,44.15 58.194949,42.5 Z"
       id="path28"
       inkscape:connector-curvature="0" />
    <path
       style="fill:#4d4d4d"
       d="m 48.25,90.310674 c 0.9625,-0.251527 2.5375,-0.251527 3.5,0 0.9625,0.251528 0.175,0.457323 -1.75,0.457323 -1.925,0 -2.7125,-0.205795 -1.75,-0.457323 z M 63.194949,80.5 c 0.02038,-1.65 0.244498,-2.203936 0.498042,-1.230968 0.253543,0.972967 0.236869,2.322967 -0.03705,3 C 63.382014,82.946064 63.174569,82.15 63.194949,80.5 Z M 65,65.5 C 64.315311,64.675 63.980111,64 64.255111,64 c 0.275,0 1.0602,0.675 1.744889,1.5 0.684689,0.825 1.019889,1.5 0.744889,1.5 -0.275,0 -1.0602,-0.675 -1.744889,-1.5 z M 34,50.5 C 33.315311,49.675 32.980111,49 33.255111,49 c 0.275,0 1.0602,0.675 1.744889,1.5 0.684689,0.825 1.019889,1.5 0.744889,1.5 -0.275,0 -1.0602,-0.675 -1.744889,-1.5 z m 54.286014,-9 c 0.0075,-2.75 0.201713,-3.756313 0.431567,-2.23625 0.229855,1.520062 0.223712,3.770062 -0.01365,5 C 88.466569,45.493687 88.278507,44.25 88.286014,41.5 Z m 9.908935,-7 c 0.02038,-1.65 0.244498,-2.203936 0.498042,-1.230968 0.253543,0.972967 0.236869,2.322967 -0.03705,3 C 98.382014,36.946064 98.174569,36.15 98.194949,34.5 Z m -9.942766,-8 c -0.0111,-2.2 0.184605,-3.217747 0.434897,-2.261659 0.250293,0.956087 0.259374,2.756087 0.02018,4 C 88.468068,29.482253 88.263283,28.7 88.252183,26.5 Z M 84.75,21.337719 c 0.6875,-0.277412 1.8125,-0.277412 2.5,0 0.6875,0.277413 0.125,0.504386 -1.25,0.504386 -1.375,0 -1.9375,-0.226973 -1.25,-0.504386 z M 4,7.6224447 C 4,7.4147893 4.7875,6.6272893 5.75,5.8724447 7.3360556,4.6285741 7.3714259,4.6639444 6.1275553,6.25 4.8211855,7.915748 4,8.4454789 4,7.6224447 Z"
       id="path26"
       inkscape:connector-curvature="0" />
    <path
       style="fill:#303030"
       d="M 5.4049876,105.75 3.5,103.5 5.75,105.40499 C 7.8644448,107.19521 8.4552408,108 7.6549876,108 c -0.1897569,0 -1.2022569,-1.0125 -2.25,-2.25 z M 110.45667,56.5 c 2.6e-4,-22.55 0.13184,-31.632365 0.29239,-20.183033 0.16056,11.449331 0.16035,29.899331 -4.7e-4,41 C 110.58778,88.417635 110.45641,79.05 110.45667,56.5 Z M 28,89.5 C 27.315311,88.675 26.980111,88 27.255111,88 c 0.275,0 1.0602,0.675 1.744889,1.5 0.684689,0.825 1.019889,1.5 0.744889,1.5 -0.275,0 -1.0602,-0.675 -1.744889,-1.5 z m 8,-4 C 35.315311,84.675 34.980111,84 35.255111,84 c 0.275,0 1.0602,0.675 1.744889,1.5 0.684689,0.825 1.019889,1.5 0.744889,1.5 -0.275,0 -1.0602,-0.675 -1.744889,-1.5 z m 34.194949,-9 c 0.02038,-1.65 0.244498,-2.203936 0.498042,-1.230968 0.253543,0.972967 0.236869,2.322967 -0.03705,3 C 70.382014,78.946064 70.174569,78.15 70.194949,76.5 Z M 48.5,64 c 0.339919,-0.55 0.816476,-1 1.059017,-1 C 49.801558,63 50,63.45 50,64 50,64.55 49.523442,65 48.940983,65 48.358524,65 48.160081,64.55 48.5,64 Z m 8.578947,-7.583333 c 0.04798,-1.164943 0.284941,-1.4019 0.604167,-0.604167 0.288871,0.721875 0.253344,1.584375 -0.07895,1.916667 -0.332292,0.332291 -0.568641,-0.258334 -0.52522,-1.3125 z M 83,47.613499 c 0,-0.212575 1.326234,-0.58115 2.947187,-0.819056 1.620953,-0.237905 2.719396,-0.06398 2.440983,0.386501 C 87.892655,47.982704 83,48.37548 83,47.613499 Z M 82.252183,42.5 c -0.0111,-2.2 0.184605,-3.217747 0.434897,-2.261659 0.250293,0.956087 0.259374,2.756087 0.02018,4 C 82.468068,45.482253 82.263283,44.7 82.252183,42.5 Z M 29.078947,39.416667 c 0.04798,-1.164943 0.284941,-1.4019 0.604167,-0.604167 0.288871,0.721875 0.253344,1.584375 -0.07895,1.916667 -0.332292,0.332291 -0.568641,-0.258334 -0.52522,-1.3125 z m 43.305095,-2.858254 c -1.401281,-3.651678 -0.0071,-5.055527 5.124952,-5.160515 L 82.5,31.295796 77.75,31.702689 C 73.520024,32.065036 73,32.37156 73,34.502532 c 0,2.173427 0.481619,2.426642 5.25,2.760226 l 5.25,0.367277 -5.281385,0.184983 c -3.805998,0.133306 -5.435921,-0.217734 -5.834573,-1.256605 z m 18.879708,0.724006 c 1.520062,-0.229855 3.770062,-0.223712 5,0.01365 1.229937,0.237362 -0.01375,0.425424 -2.76375,0.417917 -2.75,-0.0075 -3.756313,-0.201713 -2.23625,-0.431567 z M 88.629163,31.20899 c -0.268879,-0.435056 1.167063,-0.634116 3.190983,-0.442357 6.183799,0.585894 6.913057,0.995598 1.988871,1.117366 -2.580041,0.0638 -4.910975,-0.239954 -5.179854,-0.675009 z m -6.550216,-4.899973 c -0.04342,-2.305041 0.277008,-4.410975 0.712063,-4.679854 0.435056,-0.268879 0.627442,1.167063 0.427525,3.190983 -0.54665,5.534173 -1.050973,6.193071 -1.139588,1.488871 z M 52,27.5 C 51.315311,26.675 50.980111,26 51.255111,26 c 0.275,0 1.0602,0.675 1.744889,1.5 0.684689,0.825 1.019889,1.5 0.744889,1.5 -0.275,0 -1.0602,-0.675 -1.744889,-1.5 z m 10.75,-2.162281 c 0.6875,-0.277412 1.8125,-0.277412 2.5,0 0.6875,0.277413 0.125,0.504386 -1.25,0.504386 -1.375,0 -1.9375,-0.226973 -1.25,-0.504386 z M 1.0789474,15.416667 c 0.047984,-1.164943 0.2849403,-1.4019 0.6041666,-0.604167 0.2888706,0.721875 0.2533443,1.584375 -0.078947,1.916667 -0.3322917,0.332291 -0.5686404,-0.258334 -0.5252196,-1.3125 z M 36.25,1.2512499 c 10.8625,-0.1614414 28.6375,-0.1614414 39.5,0 10.8625,0.1614414 1.975,0.2935298 -19.75,0.2935298 -21.725,0 -30.6125,-0.1320884 -19.75,-0.2935298 z"
       id="path24"
       inkscape:connector-curvature="0" />
    <path
       style="fill:#000000"
       d="M 13.158636,110.02615 C 7.9588672,108.76421 3.261977,103.54882 1.957283,97.588261 1.2100646,94.174557 0.95154829,79.500474 1.1717623,53 1.4823531,15.623616 1.6075248,13.317451 3.5,10.10453 4.6,8.2370222 6.769992,5.7620222 8.3222044,4.6045305 11.075276,2.5515526 12.209059,2.4931259 54.606547,2.2193792 103.22997,1.9054337 102.78728,1.8497937 107.56106,8.875053 L 110,12.464269 v 43.619982 c 0,43.599093 -0.001,43.621584 -2.2534,46.963799 -1.23937,1.8391 -3.82687,4.26815 -5.75,5.39788 -3.359862,1.97374 -5.099943,2.06066 -44.4966,2.2226 -22.55,0.0927 -42.503614,-0.19638 -44.341364,-0.64238 z M 58.5,93.037157 C 63.026544,91.292578 68.910377,85.046551 70.064383,80.760901 71.837833,74.174811 70.352214,70.136992 63.845994,63.859719 60.405992,60.540765 58,57.364894 58,56.143098 58,55.001112 60.025,51.786718 62.5,49 c 4.219414,-4.750835 4.499767,-5.423204 4.496262,-10.78338 -0.0025,-3.804699 -0.624854,-6.735147 -1.860866,-8.762003 l -1.857129,-3.045383 4.360867,-1.803672 C 70.03761,23.613542 72,22.396464 72,21.900945 72,21.405425 66.013355,21 58.696344,21 46.378193,21 45.006681,21.192356 40.181844,23.596674 27.754223,29.789618 26.02634,45.383835 36.951949,52.746602 38.918674,54.071977 41.813555,55 43.981217,55 c 3.325596,0 3.696819,0.268514 3.801888,2.75 0.06404,1.5125 0.251541,3.632894 0.416667,4.711988 0.255133,1.667291 -0.51291,2.08265 -5.113364,2.765318 C 32.422432,66.809747 25,73.357789 25,81.183067 c 0,4.704305 2.052114,8.067988 6.659225,10.915339 5.906737,3.650564 18.648352,4.0962 26.840775,0.938751 z M 42.332914,88.902705 C 38.163461,87.695586 34,82.671025 34,78.846352 34,73.165266 41.882141,68.021224 50.611163,68.005577 55.229373,67.997299 63,75.448801 63,79.885629 c 0,1.785219 -0.486221,4.154366 -1.080491,5.264771 -2.234851,4.175857 -11.796546,6.00764 -19.586595,3.752305 z M 47.5,51.054643 c -6.417461,-2.626616 -11.121837,-17.05695 -7.218197,-22.1413 5.440102,-7.085536 14.077238,-2.922095 16.710649,8.055191 1.805703,7.527018 0.68762,11.849367 -3.519887,13.607376 -1.87458,0.783249 -3.535281,1.395566 -3.690446,1.360704 C 49.626953,51.901751 48.6,51.504865 47.5,51.054643 Z m 41.302641,-8.252002 0.302642,-4.697358 4.697358,-0.302642 C 98.288008,37.513658 98.5,37.36461 98.5,34.5 c 0,-2.86461 -0.211992,-3.013658 -4.697359,-3.302641 L 89.105283,30.894717 88.802641,26.197359 C 88.513658,21.711992 88.36461,21.5 85.5,21.5 c -2.888889,0 -3,0.166667 -3,4.5 v 4.5 l -5,0.5 c -4.777778,0.477778 -5,0.633333 -5,3.5 0,2.902531 0.165773,3.009654 5.102317,3.297138 4.807418,0.279964 5.075421,0.437838 4.636955,2.731524 -0.255949,1.338912 -0.173797,3.596076 0.182561,5.015919 0.526609,2.098178 1.15629,2.522917 3.363045,2.268476 2.472246,-0.285053 2.742194,-0.73325 3.017763,-5.010416 z"
       id="path22"
       inkscape:connector-curvature="0" />
  </g>
</svg>
