<?xml version="1.0" encoding="UTF-8" standalone="no"?>
<!-- Created with Inkscape (http://www.inkscape.org/) -->

<svg
   xmlns:dc="http://purl.org/dc/elements/1.1/"
   xmlns:cc="http://creativecommons.org/ns#"
   xmlns:rdf="http://www.w3.org/1999/02/22-rdf-syntax-ns#"
   xmlns:svg="http://www.w3.org/2000/svg"
   xmlns="http://www.w3.org/2000/svg"
   xmlns:sodipodi="http://sodipodi.sourceforge.net/DTD/sodipodi-0.dtd"
   xmlns:inkscape="http://www.inkscape.org/namespaces/inkscape"
   version="1.1"
   id="svg58"
   width="109.9948"
   height="110.05851"
   viewBox="0 0 109.9948 110.05851"
   sodipodi:docname="instagram.svg"
   inkscape:version="0.92.1 r15371">
  <metadata
     id="metadata64">
    <rdf:RDF>
      <cc:Work
         rdf:about="">
        <dc:format>image/svg+xml</dc:format>
        <dc:type
           rdf:resource="http://purl.org/dc/dcmitype/StillImage" />
        <dc:title></dc:title>
      </cc:Work>
    </rdf:RDF>
  </metadata>
  <defs
     id="defs62" />
  <sodipodi:namedview
     pagecolor="#ffffff"
     bordercolor="#666666"
     borderopacity="1"
     objecttolerance="10"
     gridtolerance="10"
     guidetolerance="10"
     inkscape:pageopacity="0"
     inkscape:pageshadow="2"
     inkscape:window-width="1175"
     inkscape:window-height="794"
     id="namedview60"
     showgrid="false"
     fit-margin-top="0"
     fit-margin-left="0"
     fit-margin-right="0"
     fit-margin-bottom="0"
     inkscape:zoom="2.1071429"
     inkscape:cx="200.24056"
     inkscape:cy="89.228"
     inkscape:window-x="36"
     inkscape:window-y="98"
     inkscape:window-maximized="0"
     inkscape:current-layer="svg58" />
  <path
     style="fill:#7e7e7e"
     d="m 7.9360905,107.77119 c -1.89271,-1.25804 -4.45379,-4.29155 -5.69129,-6.74115 C 0.02141049,96.628898 -0.00513951,96.096778 3.7048838e-4,56.03811 0.00337049,32.423633 0.41846049,14.015107 0.99405049,11.943154 2.1751005,7.69171 6.1203905,3.680219 11.21268,1.553047 14.36783,0.235067 21.10907,0 55.750789,0 c 40.345772,0 40.871996,0.02615 45.274051,2.25 2.4496,1.2375 5.46995,3.779047 6.71189,5.647883 2.25734,3.396792 2.25807,3.411846 2.25807,46.863846 0,42.101179 -0.0649,43.580129 -2.06768,47.102121 -1.13723,1.99988 -3.27473,4.53615 -4.75,5.63615 -2.57434,1.91949 -4.476101,2.01124 -47.241026,2.27926 L 11.37739,110.05851 Z M 83.923276,87.536988 c 1.556037,-0.80466 3.10869,-2.19147 3.45034,-3.08179 0.341649,-0.89033 0.621181,-13.59047 0.621181,-28.222534 0,-25.938399 -0.05438,-26.661646 -2.174314,-28.918213 C 83.648996,25.003009 83.610087,25 55.893063,25 H 28.13996 l -2.07258,2.634859 c -1.98085,2.518236 -2.07117,3.812877 -2.04078,29.25 0.0331,27.731899 0.13275,28.420949 4.4682,30.907319 3.22969,1.85223 51.785473,1.62868 55.428476,-0.25519 z M 31.67883,80.350698 C 31.30261,79.974478 30.9948,73.441668 30.9948,65.833328 V 52 h 2.93713 c 2.78038,0 2.90775,0.181008 2.38672,3.391754 -0.72613,4.474621 1.17528,9.968204 4.93045,14.245094 4.255685,4.84696 8.314956,6.68669 14.745697,6.683 11.257614,-0.006 19.002247,-7.20282 19.812922,-18.41028 C 76.2025,52.451783 76.419213,52 78.642445,52 h 2.407265 l -0.277456,14.249998 -0.277457,14.25 -24.065972,0.26736 C 43.19254,80.914408 32.05504,80.726858 31.67883,80.350698 Z M 50.063422,67.248448 C 42.69284,63.492792 41.24346,53.905184 47.152934,47.995709 c 5.648034,-5.648034 15.094037,-4.713041 19.575961,1.937686 3.9704,5.891676 2.226196,13.29085 -4.032647,17.107093 -3.966937,2.41878 -8.158604,2.48778 -12.632826,0.20796 z M 68.419613,42.664669 C 68.116567,41.874945 68.009511,39.264826 68.181709,36.864404 L 68.494797,32.5 h 6 6 v 5.5 5.5 l -5.762096,0.300265 c -4.292191,0.223667 -5.902654,-0.06602 -6.313088,-1.135596 z"
     id="path68"
     inkscape:connector-curvature="0" />
</svg>
