<?xml version="1.0" encoding="UTF-8" standalone="no"?>
<!-- Created with Inkscape (http://www.inkscape.org/) -->

<svg
   xmlns:dc="http://purl.org/dc/elements/1.1/"
   xmlns:cc="http://creativecommons.org/ns#"
   xmlns:rdf="http://www.w3.org/1999/02/22-rdf-syntax-ns#"
   xmlns:svg="http://www.w3.org/2000/svg"
   xmlns="http://www.w3.org/2000/svg"
   xmlns:sodipodi="http://sodipodi.sourceforge.net/DTD/sodipodi-0.dtd"
   xmlns:inkscape="http://www.inkscape.org/namespaces/inkscape"
   version="1.1"
   id="svg82"
   width="109.98209"
   height="109.77608"
   viewBox="0 0 109.98209 109.77608"
   sodipodi:docname="twtiter.svg"
   inkscape:version="0.92.1 r15371">
  <metadata
     id="metadata88">
    <rdf:RDF>
      <cc:Work
         rdf:about="">
        <dc:format>image/svg+xml</dc:format>
        <dc:type
           rdf:resource="http://purl.org/dc/dcmitype/StillImage" />
        <dc:title></dc:title>
      </cc:Work>
    </rdf:RDF>
  </metadata>
  <defs
     id="defs86" />
  <sodipodi:namedview
     pagecolor="#ffffff"
     bordercolor="#666666"
     borderopacity="1"
     objecttolerance="10"
     gridtolerance="10"
     guidetolerance="10"
     inkscape:pageopacity="0"
     inkscape:pageshadow="2"
     inkscape:window-width="1191"
     inkscape:window-height="773"
     id="namedview84"
     showgrid="false"
     fit-margin-top="0"
     fit-margin-left="0"
     fit-margin-right="0"
     fit-margin-bottom="0"
     inkscape:zoom="2.1071429"
     inkscape:cx="-104.00139"
     inkscape:cy="50.919302"
     inkscape:window-x="0"
     inkscape:window-y="0"
     inkscape:window-maximized="0"
     inkscape:current-layer="svg82" />
  <path
     style="fill:#7e7e7e"
     d="M 10.981661,109.35428 C 7.2446014,107.91108 3.5965714,104.42326 1.8871014,100.6591 0.16852141,96.874914 0.02390141,93.366396 0.00362141,54.967454 c -0.0219,-41.508368 -0.0173,-41.601547 2.28077999,-45.9472617 1.58357,-2.9945754 3.68048,-5.08311 6.71417,-6.6873687 L 13.410011,0 l 43.11476,0.2800849 43.11477,0.2800849 3.672109,2.8016933 c 6.84641,5.2235739 6.67001,3.8482927 6.67001,52.0007639 0,43.363047 -0.002,43.404727 -2.25,46.707713 -1.2375,1.81826 -3.52,4.24731 -5.07222,5.39788 -2.752719,2.04043 -3.898019,2.09655 -46.499999,2.27864 -24.02278,0.10268 -44.35278,-0.074 -45.17778,-0.39258 z m 62.75,-21.637459 c 3.00219,-1.577774 3.25,-2.087306 3.25,-6.682331 0,-2.735876 -0.25295,-4.97432 -0.5621,-4.97432 -0.30916,0 -2.75844,0.718386 -5.44285,1.596412 -3.97081,1.298784 -5.54044,1.378698 -8.41914,0.42864 -4.69684,-1.550097 -5.78717,-5.401834 -5.3855,-19.025052 l 0.30959,-10.5 8.25,-0.290442 8.25,-0.290443 V 42.519728 37.06017 h -8.5 -8.5 v -9 -9 h -4.88128 -4.88129 l -1.11169,4.414928 c -1.30372,5.177545 -4.91918,9.798312 -10.34802,13.225391 -3.63094,2.292109 -3.8679,2.732393 -3.5829,6.657061 0.29393,4.047632 0.43966,4.213838 3.95158,4.506809 l 3.64641,0.304189 0.35359,15.872934 c 0.40414,18.141626 0.98641,19.699079 8.91214,23.838169 3.86733,2.019651 5.54022,2.269436 12.94146,1.932331 5.41654,-0.246707 9.67897,-1.006749 11.75,-2.095161 z"
     id="path92"
     inkscape:connector-curvature="0" />
</svg>
