<?xml version="1.0" encoding="UTF-8" standalone="no"?>
<!-- Created with Inkscape (http://www.inkscape.org/) -->

<svg
   xmlns:dc="http://purl.org/dc/elements/1.1/"
   xmlns:cc="http://creativecommons.org/ns#"
   xmlns:rdf="http://www.w3.org/1999/02/22-rdf-syntax-ns#"
   xmlns:svg="http://www.w3.org/2000/svg"
   xmlns="http://www.w3.org/2000/svg"
   xmlns:sodipodi="http://sodipodi.sourceforge.net/DTD/sodipodi-0.dtd"
   xmlns:inkscape="http://www.inkscape.org/namespaces/inkscape"
   version="1.1"
   id="svg70"
   width="110.00005"
   height="110.57579"
   viewBox="0 0 110.00005 110.57579"
   sodipodi:docname="twitter.svg"
   inkscape:version="0.92.1 r15371">
  <metadata
     id="metadata76">
    <rdf:RDF>
      <cc:Work
         rdf:about="">
        <dc:format>image/svg+xml</dc:format>
        <dc:type
           rdf:resource="http://purl.org/dc/dcmitype/StillImage" />
        <dc:title></dc:title>
      </cc:Work>
    </rdf:RDF>
  </metadata>
  <defs
     id="defs74" />
  <sodipodi:namedview
     pagecolor="#ffffff"
     bordercolor="#666666"
     borderopacity="1"
     objecttolerance="10"
     gridtolerance="10"
     guidetolerance="10"
     inkscape:pageopacity="0"
     inkscape:pageshadow="2"
     inkscape:window-width="993"
     inkscape:window-height="739"
     id="namedview72"
     showgrid="false"
     fit-margin-top="0"
     fit-margin-left="0"
     fit-margin-right="0"
     fit-margin-bottom="0"
     inkscape:zoom="2.0884956"
     inkscape:cx="-77.13136"
     inkscape:cy="58.064198"
     inkscape:window-x="0"
     inkscape:window-y="0"
     inkscape:window-maximized="0"
     inkscape:current-layer="svg70" />
  <path
     style="fill:#7e7e7e"
     d="M 13.1228,109.90805 C 8.22616,108.71476 4.80921,105.87253 2.25,100.86404 0.02401,96.50769 0,96.01971 0,55.140463 0,9.8735426 0.0372,9.5552686 5.90949,4.6140801 11.36099,0.02694584 14.19734,-0.22003256 57.83802,0.09234514 l 40.81142,0.2921259 4.019,2.66076226 C 110.0856,7.9557506 110,7.3453486 110,55.325438 c 0,40.440869 -0.10149,42.837642 -1.96891,46.498102 -1.08291,2.12266 -3.67041,4.91723 -5.75,6.21016 l -3.78109,2.35077 -41,0.1733 c -22.55,0.0953 -42.51974,-0.19706 -44.3772,-0.64972 z M 62.5551,82.251861 c 12.87762,-5.155267 22.2456,-17.753434 24.36272,-32.763288 0.80826,-5.73031 1.53125,-7.481053 4.27742,-10.35782 L 94.5,35.668831 l -3.4133,0.72314 -3.41329,0.72314 2.16329,-2.750179 c 3.10705,-3.949965 2.70035,-4.581227 -1.90473,-2.95646 -3.81528,1.346108 -4.25055,1.300338 -7.00575,-0.736666 -3.96302,-2.929987 -11.83288,-2.99278 -15.68017,-0.125112 -3.7482,2.79381 -6.27139,7.391754 -6.4343,11.725047 C 58.65657,46.399648 58.09479,46.552171 50.5,44.528376 44.04303,42.80778 40.53079,40.952534 34.08563,35.857927 31.20042,33.577302 28.53834,32.012791 28.1699,32.381236 27.80145,32.749682 27.5,35.376138 27.5,38.217804 c 0,3.868201 0.60992,6.021847 2.4269,8.569475 l 2.4269,3.402808 -2.6769,-0.67186 c -2.14759,-0.539012 -2.67617,-0.322061 -2.67317,1.097192 0.006,2.857081 3.72036,8.130256 7.23713,10.274454 2.89158,1.763022 3.00539,1.987543 1.00914,1.99086 -5.10954,0.0085 -0.37067,7.183374 6.25,9.462818 l 4,1.377168 -5.5,2.572107 c -3.17651,1.48551 -7.29543,2.576234 -9.75,2.581876 -5.48566,0.01261 -5.40875,1.401825 0.19611,3.54234 11.07565,4.229828 21.26134,4.177429 32.10899,-0.165181 z"
     id="path80"
     inkscape:connector-curvature="0" />
</svg>
