<?xml version="1.0" encoding="UTF-8" standalone="no"?>
<!-- Created with Inkscape (http://www.inkscape.org/) -->

<svg
   xmlns:dc="http://purl.org/dc/elements/1.1/"
   xmlns:cc="http://creativecommons.org/ns#"
   xmlns:rdf="http://www.w3.org/1999/02/22-rdf-syntax-ns#"
   xmlns:svg="http://www.w3.org/2000/svg"
   xmlns="http://www.w3.org/2000/svg"
   xmlns:xlink="http://www.w3.org/1999/xlink"
   xmlns:sodipodi="http://sodipodi.sourceforge.net/DTD/sodipodi-0.dtd"
   xmlns:inkscape="http://www.inkscape.org/namespaces/inkscape"
   version="1.1"
   id="svg10"
   width="109.85349"
   height="110.93658"
   viewBox="0 0 109.85349 110.93658"
   sodipodi:docname="YouTube.svg"
   inkscape:version="0.92.1 r15371">
  <metadata
     id="metadata16">
    <rdf:RDF>
      <cc:Work
         rdf:about="">
        <dc:format>image/svg+xml</dc:format>
        <dc:type
           rdf:resource="http://purl.org/dc/dcmitype/StillImage" />
        <dc:title></dc:title>
      </cc:Work>
    </rdf:RDF>
  </metadata>
  <defs
     id="defs14" />
  <sodipodi:namedview
     pagecolor="#ffffff"
     bordercolor="#666666"
     borderopacity="1"
     objecttolerance="10"
     gridtolerance="10"
     guidetolerance="10"
     inkscape:pageopacity="0"
     inkscape:pageshadow="2"
     inkscape:window-width="1126"
     inkscape:window-height="864"
     id="namedview12"
     showgrid="false"
     fit-margin-top="0"
     fit-margin-left="0"
     fit-margin-right="0"
     fit-margin-bottom="0"
     inkscape:zoom="2.0884956"
     inkscape:cx="190.35527"
     inkscape:cy="59.850263"
     inkscape:window-x="-2"
     inkscape:window-y="11"
     inkscape:window-maximized="0"
     inkscape:current-layer="svg10" />
  
  <g
     id="g58"
     transform="translate(195.62222,109.98039)">
    <path
       style="fill:#e9e9e9"
       d="m 36.75,112.25119 c 11.1375,-0.16093 29.3625,-0.16093 40.5,0 11.1375,0.16094 2.025,0.29261 -20.25,0.29261 -22.275,0 -31.3875,-0.13167 -20.25,-0.29261 z m -3,-13.913471 c 0.6875,-0.277412 1.8125,-0.277412 2.5,0 0.6875,0.277413 0.125,0.504386 -1.25,0.504386 -1.375,0 -1.9375,-0.226973 -1.25,-0.504386 z m 42,0 c 0.6875,-0.277412 1.8125,-0.277412 2.5,0 0.6875,0.277413 0.125,0.504386 -1.25,0.504386 -1.375,0 -1.9375,-0.226973 -1.25,-0.504386 z M 0.4557117,56.5 c -2.7028e-4,-22 0.13149696,-31.142471 0.29281608,-20.316602 0.16131912,10.825869 0.16154026,28.825869 4.9142e-4,40 C 0.58797036,87.357529 0.45598198,78.5 0.4557117,56.5 Z m 111.9999983,0 c -2.7e-4,-22 0.1315,-31.142471 0.29282,-20.316602 0.16132,10.825869 0.16154,28.825869 4.9e-4,40 C 112.58797,87.357529 112.45598,78.5 112.45571,56.5 Z M 36.391721,78 c 0,-7.425 0.157423,-10.4625 0.349829,-6.75 0.192407,3.7125 0.192407,9.7875 0,13.5 -0.192406,3.7125 -0.349829,0.675 -0.349829,-6.75 z M 54.213756,79.316422 54,67.132845 51.25,66.716254 48.5,66.299664 51.281385,66.149832 c 1.529761,-0.08241 3.007794,0.440182 3.284517,1.161311 0.276723,0.721128 0.35879,6.458628 0.182372,12.75 L 54.427512,91.5 Z M 70.354955,78.5 c 0.003,-4.95 0.17464,-6.848922 0.381317,-4.219827 0.206676,2.629095 0.204183,6.679095 -0.0055,9 C 70.521007,85.601078 70.351908,83.45 70.354955,78.5 Z M 46.205635,76.819551 C 46.010892,67.651868 45.880819,67.116147 43.75,66.705733 l -2.25,-0.433369 2.281385,-0.136182 c 3.051472,-0.182151 3.358643,1.003058 2.965675,11.442961 L 46.41127,86.5 Z M 62.336206,79 c 0,-4.125 0.176518,-5.8125 0.392262,-3.75 0.215745,2.0625 0.215745,5.4375 0,7.5 -0.215744,2.0625 -0.392262,0.375 -0.392262,-3.75 z m 9.991934,-0.5 c -0.0044,-3.85 0.17268,-5.547537 0.393592,-3.772304 0.220912,1.775232 0.224542,4.925232 0.0081,7 C 72.513323,83.802463 72.332577,82.35 72.32814,78.5 Z m 10.48436,2.816886 c 0.721875,-0.288871 1.584375,-0.253344 1.916667,0.07895 0.332291,0.332292 -0.258334,0.568641 -1.3125,0.52522 -1.164943,-0.04798 -1.4019,-0.284941 -0.604167,-0.604167 z M 86.194949,76.5 c 0.02038,-1.65 0.244498,-2.203936 0.498042,-1.230968 0.253543,0.972967 0.236869,2.322967 -0.03705,3 C 86.382014,78.946064 86.174569,78.15 86.194949,76.5 Z M 78.8125,75.316886 c 0.721875,-0.288871 1.584375,-0.253344 1.916667,0.07895 0.332291,0.332292 -0.258334,0.568641 -1.3125,0.52522 -1.164943,-0.04798 -1.4019,-0.284941 -0.604167,-0.604167 z M 62.286014,63.5 c 0.0075,-2.75 0.201713,-3.756313 0.431567,-2.23625 0.229855,1.520062 0.223712,3.770062 -0.01365,5 C 62.466569,67.493687 62.278507,66.25 62.286014,63.5 Z M 33.5,59 25.5,58.366759 33.190983,58.18338 C 37.450217,58.081825 41.157735,58.446204 41.5,59 c 0.339919,0.55 0.478976,0.917479 0.309017,0.81662 C 41.639058,59.715762 37.9,59.348282 33.5,59 Z m 24.25,-0.662281 c 0.6875,-0.277412 1.8125,-0.277412 2.5,0 0.6875,0.277413 0.125,0.504386 -1.25,0.504386 -1.375,0 -1.9375,-0.226973 -1.25,-0.504386 z m -28,-6 c 0.6875,-0.277412 1.8125,-0.277412 2.5,0 0.6875,0.277413 0.125,0.504386 -1.25,0.504386 -1.375,0 -1.9375,-0.226973 -1.25,-0.504386 z m 50,0 c 0.6875,-0.277412 1.8125,-0.277412 2.5,0 0.6875,0.277413 0.125,0.504386 -1.25,0.504386 -1.375,0 -1.9375,-0.226973 -1.25,-0.504386 z m -27,-1.061115 c 1.7875,-0.221826 4.7125,-0.221826 6.5,0 1.7875,0.221827 0.325,0.403322 -3.25,0.403322 -3.575,0 -5.0375,-0.181495 -3.25,-0.403322 z M 76.374067,34.5 c 0.0023,-6.05 0.166961,-8.396069 0.366011,-5.213487 0.19905,3.182582 0.197204,8.132582 -0.0041,11 C 76.53467,43.153931 76.371811,40.55 76.374067,34.5 Z M 65.369965,34 c 0,-5.775 0.165274,-8.1375 0.367277,-5.25 0.202002,2.8875 0.202002,7.6125 0,10.5 -0.202003,2.8875 -0.367277,0.525 -0.367277,-5.25 z m 6.338215,8.947926 c 0.668032,-0.858178 1.358481,-5.552479 1.544365,-10.5 L 73.58873,23.5 l 0.205635,9.127555 c 0.172604,7.661406 -0.07547,9.34801 -1.544365,10.5 -1.537761,1.205996 -1.603473,1.184211 -0.54182,-0.179629 z M 49.336206,35 c 0,-4.125 0.176518,-5.8125 0.392262,-3.75 0.215745,2.0625 0.215745,5.4375 0,7.5 -0.215744,2.0625 -0.392262,0.375 -0.392262,-3.75 z m 19.02429,-2 c 0,-5.225 0.168545,-7.3625 0.374543,-4.75 0.205999,2.6125 0.205999,6.8875 0,9.5 -0.205998,2.6125 -0.374543,0.475 -0.374543,-4.75 z M 36.816602,0.2509808 c 11.174131,-0.16104884 29.174131,-0.1608277 40,4.9142e-4 C 87.642471,0.41279134 78.5,0.54455858 56.5,0.5442883 34.5,0.54401802 25.642471,0.41202964 36.816602,0.2509808 Z"
       id="path72"
       inkscape:connector-curvature="0" />
    <path
       style="fill:#d1d1d1"
       d="M 5.4049876,106.75 3.5,104.5 5.75,106.40499 C 7.8644448,108.19521 8.4552408,109 7.6549876,109 c -0.1897569,0 -1.2022569,-1.0125 -2.25,-2.25 z M 30.8125,98.316886 c 0.721875,-0.288871 1.584375,-0.253344 1.916667,0.07895 0.332291,0.332292 -0.258334,0.568641 -1.3125,0.52522 -1.164943,-0.04798 -1.4019,-0.284941 -0.604167,-0.604167 z m 49,0 c 0.721875,-0.288871 1.584375,-0.253344 1.916667,0.07895 0.332291,0.332292 -0.258334,0.568641 -1.3125,0.52522 -1.164943,-0.04798 -1.4019,-0.284941 -0.604167,-0.604167 z M 30.391721,77 c 0,-7.425 0.157423,-10.4625 0.349829,-6.75 0.192407,3.7125 0.192407,9.7875 0,13.5 -0.192406,3.7125 -0.349829,0.675 -0.349829,-6.75 z m -9.021756,-2 c 0,-5.775 0.165274,-8.1375 0.367277,-5.25 0.202002,2.8875 0.202002,7.6125 0,10.5 -0.202003,2.8875 -0.367277,0.525 -0.367277,-5.25 z m 68.98499,0.5 c 0.003,-4.95 0.17464,-6.848922 0.381317,-4.219827 0.206676,2.629095 0.204183,6.679095 -0.0055,9 C 90.521007,82.601078 90.351908,80.45 90.354955,75.5 Z M 78.8125,66.316886 c 0.721875,-0.288871 1.584375,-0.253344 1.916667,0.07895 0.332291,0.332292 -0.258334,0.568641 -1.3125,0.52522 -1.164943,-0.04798 -1.4019,-0.284941 -0.604167,-0.604167 z M 25.157895,61 c 0,-1.375 0.226973,-1.9375 0.504386,-1.25 0.277412,0.6875 0.277412,1.8125 0,2.5 -0.277413,0.6875 -0.504386,0.125 -0.504386,-1.25 z m 15.921052,0.416667 c 0.04798,-1.164943 0.284941,-1.4019 0.604167,-0.604167 0.288871,0.721875 0.253344,1.584375 -0.07895,1.916667 -0.332292,0.332291 -0.568641,-0.258334 -0.52522,-1.3125 z M 40.75,51.276604 c 1.7875,-0.221826 4.7125,-0.221826 6.5,0 1.7875,0.221827 0.325,0.403322 -3.25,0.403322 -3.575,0 -5.0375,-0.181495 -3.25,-0.403322 z m 24,0 c 1.7875,-0.221826 4.7125,-0.221826 6.5,0 1.7875,0.221827 0.325,0.403322 -3.25,0.403322 -3.575,0 -5.0375,-0.181495 -3.25,-0.403322 z M 52.32814,34.5 c -0.0044,-3.85 0.17268,-5.547537 0.393592,-3.772304 0.220912,1.775232 0.224542,4.925232 0.0081,7 C 52.513323,39.802463 52.332577,38.35 52.32814,34.5 Z m 5,0 c -0.0044,-3.85 0.17268,-5.547537 0.393592,-3.772304 0.220912,1.775232 0.224542,4.925232 0.0081,7 C 57.513323,39.802463 57.332577,38.35 57.32814,34.5 Z M 33.75,15.337719 c 0.6875,-0.277412 1.8125,-0.277412 2.5,0 0.6875,0.277413 0.125,0.504386 -1.25,0.504386 -1.375,0 -1.9375,-0.226973 -1.25,-0.504386 z m 11,0 c 0.6875,-0.277412 1.8125,-0.277412 2.5,0 0.6875,0.277413 0.125,0.504386 -1.25,0.504386 -1.375,0 -1.9375,-0.226973 -1.25,-0.504386 z"
       id="path70"
       inkscape:connector-curvature="0" />
    <path
       style="fill:#a3a3a3"
       d="m 106,107.62244 c 0,-0.20765 0.7875,-0.99515 1.75,-1.75 1.58606,-1.24387 1.62143,-1.2085 0.37756,0.37756 C 106.82119,107.91575 106,108.44548 106,107.62244 Z M 46.75,99.254932 c 5.0875,-0.181491 13.4125,-0.181491 18.5,0 5.0875,0.181491 0.925,0.329984 -9.25,0.329984 -10.175,0 -14.3375,-0.148493 -9.25,-0.329984 z M 21.078947,86.416667 c 0.04798,-1.164943 0.284941,-1.4019 0.604167,-0.604167 0.288871,0.721875 0.253344,1.584375 -0.07895,1.916667 -0.332292,0.332291 -0.568641,-0.258334 -0.52522,-1.3125 z m 69,-1 c 0.04798,-1.164943 0.284941,-1.4019 0.604167,-0.604167 0.288871,0.721875 0.253344,1.584375 -0.07895,1.916667 -0.332292,0.332291 -0.568641,-0.258334 -0.52522,-1.3125 z M 77.194949,82.5 c 0.02038,-1.65 0.244498,-2.203936 0.498042,-1.230968 0.253543,0.972967 0.236869,2.322967 -0.03705,3 C 77.382014,84.946064 77.174569,84.15 77.194949,82.5 Z m -0.116002,-8.083333 c 0.04798,-1.164943 0.284941,-1.4019 0.604167,-0.604167 0.288871,0.721875 0.253344,1.584375 -0.07895,1.916667 -0.332292,0.332291 -0.568641,-0.258334 -0.52522,-1.3125 z M 90.157895,65 c 0,-1.375 0.226973,-1.9375 0.504386,-1.25 0.277412,0.6875 0.277412,1.8125 0,2.5 -0.277413,0.6875 -0.504386,0.125 -0.504386,-1.25 z M 34.75,51.337719 c 0.6875,-0.277412 1.8125,-0.277412 2.5,0 0.6875,0.277413 0.125,0.504386 -1.25,0.504386 -1.375,0 -1.9375,-0.226973 -1.25,-0.504386 z m 40,0 c 0.6875,-0.277412 1.8125,-0.277412 2.5,0 0.6875,0.277413 0.125,0.504386 -1.25,0.504386 -1.375,0 -1.9375,-0.226973 -1.25,-0.504386 z M 39.8125,46.316886 c 0.721875,-0.288871 1.584375,-0.253344 1.916667,0.07895 0.332291,0.332292 -0.258334,0.568641 -1.3125,0.52522 -1.164943,-0.04798 -1.4019,-0.284941 -0.604167,-0.604167 z m 33.9375,0.02083 c 0.6875,-0.277412 1.8125,-0.277412 2.5,0 0.6875,0.277413 0.125,0.504386 -1.25,0.504386 -1.375,0 -1.9375,-0.226973 -1.25,-0.504386 z M 38.309869,39.5 c 0.0056,-3.3 0.192301,-4.529441 0.414862,-2.732091 0.222562,1.79735 0.217969,4.49735 -0.0102,6 C 38.486352,44.270559 38.304256,42.8 38.309869,39.5 Z m 3.989795,0.5 c 0,-3.025 0.187466,-4.2625 0.41659,-2.75 0.229125,1.5125 0.229125,3.9875 0,5.5 -0.229124,1.5125 -0.41659,0.275 -0.41659,-2.75 z M 55,27 C 54.098708,26.41754 53.975367,26.024514 54.690983,26.015313 55.346024,26.006891 56.160081,26.45 56.5,27 c 0.767305,1.241525 0.421123,1.241525 -1.5,0 z"
       id="path68"
       inkscape:connector-curvature="0" />
    <path
       style="fill:#717171"
       d="m 35.8125,99.316886 c 0.721875,-0.288871 1.584375,-0.253344 1.916667,0.07895 0.332291,0.332292 -0.258334,0.568641 -1.3125,0.52522 -1.164943,-0.04798 -1.4019,-0.284941 -0.604167,-0.604167 z m 39,0 c 0.721875,-0.288871 1.584375,-0.253344 1.916667,0.07895 0.332291,0.332292 -0.258334,0.568641 -1.3125,0.52522 -1.164943,-0.04798 -1.4019,-0.284941 -0.604167,-0.604167 z M 1.4557117,56.5 c -2.703e-4,-22 0.131497,-31.142471 0.2928161,-20.316602 0.1613191,10.825869 0.1615402,28.825869 4.914e-4,40 C 1.5879704,87.357529 1.455982,78.5 1.4557117,56.5 Z M 32.8125,90.316886 c 0.721875,-0.288871 1.584375,-0.253344 1.916667,0.07895 0.332291,0.332292 -0.258334,0.568641 -1.3125,0.52522 -1.164943,-0.04798 -1.4019,-0.284941 -0.604167,-0.604167 z M 49.654508,90.25 C 49.399569,89.8375 50.230041,89.5 51.5,89.5 c 1.269959,0 2.100431,0.3375 1.845492,0.75 C 53.090552,90.6625 52.260081,91 51.5,91 50.739919,91 49.909448,90.6625 49.654508,90.25 Z m 8,0 C 57.399569,89.8375 58.230041,89.5 59.5,89.5 c 1.269959,0 2.100431,0.3375 1.845492,0.75 C 61.090552,90.6625 60.260081,91 59.5,91 58.739919,91 57.909448,90.6625 57.654508,90.25 Z M 41.369965,78 c 0,-5.775 0.165274,-8.1375 0.367277,-5.25 0.202002,2.8875 0.202002,7.6125 0,10.5 -0.202003,2.8875 -0.367277,0.525 -0.367277,-5.25 z m 11.995266,0.5 c -0.0026,-5.5 0.163194,-7.877585 0.368439,-5.283522 0.205246,2.594063 0.207376,7.094063 0.0047,10 C 53.535763,86.122415 53.367834,84 53.365231,78.5 Z m 7.970975,0.5 c 0,-4.125 0.176518,-5.8125 0.392262,-3.75 0.215745,2.0625 0.215745,5.4375 0,7.5 -0.215744,2.0625 -0.392262,0.375 -0.392262,-3.75 z m -11.97571,-3 c 0,-5.225 0.168545,-7.3625 0.374543,-4.75 0.205999,2.6125 0.205999,6.8875 0,9.5 -0.205998,2.6125 -0.374543,0.475 -0.374543,-4.75 z m 15.967644,2.5 c -0.0044,-3.85 0.17268,-5.547537 0.393592,-3.772304 0.220912,1.775232 0.224542,4.925232 0.0081,7 C 65.513323,83.802463 65.332577,82.35 65.32814,78.5 Z M 81.256735,84 c 0.224949,-0.825 1.271708,-1.604565 2.326131,-1.732366 C 84.92991,82.104366 85.053951,82.223296 84,82.667578 83.175,83.015349 82.128241,83.794913 81.673869,84.399944 81.142515,85.107483 80.993675,84.964776 81.256735,84 Z m -1.495076,-4.707261 c 1.243913,-0.239193 3.043913,-0.230112 4,0.02018 C 84.717747,79.563212 83.7,79.758916 81.5,79.747817 79.3,79.736717 78.517747,79.531932 79.761659,79.292739 Z M 81.157895,74 c 0,-1.375 0.226973,-1.9375 0.504386,-1.25 0.277412,0.6875 0.277412,1.8125 0,2.5 -0.277413,0.6875 -0.504386,0.125 -0.504386,-1.25 z M 61.078947,64.25 c 0.0869,-5.228429 0.57238,-4.805454 1.147777,1 0.204421,2.0625 0.01204,3.75 -0.427525,3.75 -0.439559,0 -0.763673,-2.1375 -0.720252,-4.75 z M 27.75,63.337719 c 0.6875,-0.277412 1.8125,-0.277412 2.5,0 0.6875,0.277413 0.125,0.504386 -1.25,0.504386 -1.375,0 -1.9375,-0.226973 -1.25,-0.504386 z m 9,0 c 0.6875,-0.277412 1.8125,-0.277412 2.5,0 0.6875,0.277413 0.125,0.504386 -1.25,0.504386 -1.375,0 -1.9375,-0.226973 -1.25,-0.504386 z M 48.320074,35 c 0,-3.575 0.181495,-5.0375 0.403322,-3.25 0.221826,1.7875 0.221826,4.7125 0,6.5 -0.221827,1.7875 -0.403322,0.325 -0.403322,-3.25 z M 35.683033,1.2514062 c 11.100669,-0.1608148 29.550669,-0.1610264 41,-4.702e-4 C 88.132365,1.4114922 79.05,1.543068 56.5,1.5433266 33.95,1.5435853 24.582365,1.4122211 35.683033,1.2514062 Z"
       id="path66"
       inkscape:connector-curvature="0" />
    <path
       style="fill:#4f4f4f"
       d="m 36.816602,111.25098 c 11.174131,-0.16105 29.174131,-0.16083 40,4.9e-4 10.825869,0.16132 1.683398,0.29309 -20.316602,0.29282 -22,-2.7e-4 -30.857529,-0.13226 -19.683398,-0.29331 z M 6,106.5 C 5.3153108,105.675 4.9801106,105 5.2551106,105 5.5301106,105 6.3153108,105.675 7,106.5 7.6846892,107.325 8.0198894,108 7.7448894,108 7.4698894,108 6.6846892,107.325 6,106.5 Z m 26.8125,-7.183114 c 0.721875,-0.288871 1.584375,-0.253344 1.916667,0.07895 0.332291,0.332292 -0.258334,0.568641 -1.3125,0.52522 -1.164943,-0.04798 -1.4019,-0.284941 -0.604167,-0.604167 z M 111.45714,57 c 0,-22.825 0.13128,-32.1625 0.29172,-20.75 0.16044,11.4125 0.16044,30.0875 0,41.5 -0.16044,11.4125 -0.29172,2.075 -0.29172,-20.75 z M 42.557637,90.093259 C 42.249419,89.594551 42.897861,89.422035 43.99862,89.70989 46.333607,90.320503 46.628767,91 44.559017,91 43.766476,91 42.865855,90.591966 42.557637,90.093259 Z M 78.8125,90.316886 c 0.721875,-0.288871 1.584375,-0.253344 1.916667,0.07895 0.332291,0.332292 -0.258334,0.568641 -1.3125,0.52522 -1.164943,-0.04798 -1.4019,-0.284941 -0.604167,-0.604167 z M 35.391721,77 c 0,-7.425 0.157423,-10.4625 0.349829,-6.75 0.192407,3.7125 0.192407,9.7875 0,13.5 -0.192406,3.7125 -0.349829,0.675 -0.349829,-6.75 z m 22.00822,-2.5 c 0.0014,-8.25 0.156287,-11.491932 0.34419,-7.204294 0.187904,4.287638 0.186758,11.037638 -0.0025,15 C 57.55228,86.258068 57.39854,82.75 57.399941,74.5 Z M 45.360496,77 c 0,-5.225 0.168545,-7.3625 0.374543,-4.75 0.205999,2.6125 0.205999,6.8875 0,9.5 -0.205998,2.6125 -0.374543,0.475 -0.374543,-4.75 z m 23.982314,1.5 c 0.0036,-4.4 0.179441,-6.075605 0.390687,-3.723567 0.211245,2.352038 0.208273,5.952038 -0.0066,8 C 69.512015,84.824395 69.339178,82.9 69.34281,78.5 Z m -49.01467,-3 c -0.0044,-3.85 0.17268,-5.547537 0.393592,-3.772304 0.220912,1.775232 0.224542,4.925232 0.0081,7 C 20.513323,80.802463 20.332577,79.35 20.32814,75.5 Z m 64.866809,-1 c 0.02038,-1.65 0.244498,-2.203936 0.498042,-1.230968 0.253543,0.972967 0.236869,2.322967 -0.03705,3 C 85.382014,76.946064 85.174569,76.15 85.194949,74.5 Z M 40.078947,61.416667 c 0.04798,-1.164943 0.284941,-1.4019 0.604167,-0.604167 0.288871,0.721875 0.253344,1.584375 -0.07895,1.916667 -0.332292,0.332291 -0.568641,-0.258334 -0.52522,-1.3125 z M 64.369965,34 c 0,-5.775 0.165274,-8.1375 0.367277,-5.25 0.202002,2.8875 0.202002,7.6125 0,10.5 -0.202003,2.8875 -0.367277,0.525 -0.367277,-5.25 z m -3.041825,0.5 c -0.0044,-3.85 0.17268,-5.547537 0.393592,-3.772304 0.220912,1.775232 0.224542,4.925232 0.0081,7 C 61.513323,39.802463 61.332577,38.35 61.32814,34.5 Z m 11.026815,-2 c 0.003,-4.95 0.17464,-6.848922 0.381317,-4.219827 0.206676,2.629095 0.204183,6.679095 -0.0055,9 C 72.521007,39.601078 72.351908,37.45 72.354955,32.5 Z M 53.75,22.337719 c 0.6875,-0.277412 1.8125,-0.277412 2.5,0 0.6875,0.277413 0.125,0.504386 -1.25,0.504386 -1.375,0 -1.9375,-0.226973 -1.25,-0.504386 z M 48,16.239991 c 0,-0.601339 -0.7875,-1.299138 -1.75,-1.550665 -1.577715,-0.4123 -1.583525,-0.468743 -0.05902,-0.573325 1.804148,-0.123764 3.407885,1.618465 2.409153,2.617197 C 48.270061,17.063272 48,16.841329 48,16.239991 Z"
       id="path64"
       inkscape:connector-curvature="0" />
    <path
       style="fill:#303030"
       d="m 105,107.62244 c 0,-0.20765 0.7875,-0.99515 1.75,-1.75 1.58606,-1.24387 1.62143,-1.2085 0.37756,0.37756 C 105.82119,107.91575 105,108.44548 105,107.62244 Z M 79.8125,99.316886 c 0.721875,-0.288871 1.584375,-0.253344 1.916667,0.07895 0.332291,0.332292 -0.258334,0.568641 -1.3125,0.52522 -1.164943,-0.04798 -1.4019,-0.284941 -0.604167,-0.604167 z M 62.166154,89.123851 c -1.097691,-0.695826 -1.082937,-0.941807 0.08333,-1.389347 0.8084,-0.310212 1.417179,0.05958 1.417179,0.860837 0,0.772562 -0.0375,1.397768 -0.08333,1.389346 -0.04583,-0.0084 -0.683564,-0.395798 -1.417179,-0.860836 z M 31.391721,76 c 0,-7.425 0.157423,-10.4625 0.349829,-6.75 0.192407,3.7125 0.192407,9.7875 0,13.5 -0.192406,3.7125 -0.349829,0.675 -0.349829,-6.75 z m -11.196772,8.5 c 0.02038,-1.65 0.244498,-2.203936 0.498042,-1.230968 0.253543,0.972967 0.236869,2.322967 -0.03705,3 C 20.382014,86.946064 20.174569,86.15 20.194949,84.5 Z M 73.320074,79 c 0,-3.575 0.181495,-5.0375 0.403322,-3.25 0.221826,1.7875 0.221826,4.7125 0,6.5 -0.221827,1.7875 -0.403322,0.325 -0.403322,-3.25 z M 91.34281,75.5 c 0.0036,-4.4 0.179441,-6.075605 0.390687,-3.723567 0.211245,2.352038 0.208273,5.952038 -0.0066,8 C 91.512015,81.824395 91.339178,79.9 91.34281,75.5 Z M 77.75,76.337719 c 0.6875,-0.277412 1.8125,-0.277412 2.5,0 0.6875,0.277413 0.125,0.504386 -1.25,0.504386 -1.375,0 -1.9375,-0.226973 -1.25,-0.504386 z M 20.194949,66.5 c 0.02038,-1.65 0.244498,-2.203936 0.498042,-1.230968 0.253543,0.972967 0.236869,2.322967 -0.03705,3 C 20.382014,68.946064 20.174569,68.15 20.194949,66.5 Z M 42.8125,67.316886 c 0.721875,-0.288871 1.584375,-0.253344 1.916667,0.07895 0.332291,0.332292 -0.258334,0.568641 -1.3125,0.52522 -1.164943,-0.04798 -1.4019,-0.284941 -0.604167,-0.604167 z m 8,0 c 0.721875,-0.288871 1.584375,-0.253344 1.916667,0.07895 0.332291,0.332292 -0.258334,0.568641 -1.3125,0.52522 -1.164943,-0.04798 -1.4019,-0.284941 -0.604167,-0.604167 z M 26.362127,61.269603 c 0.133857,-1.494004 1.208811,-1.781155 6.902219,-1.843779 l 6.74367,-0.07417 -6.439198,0.368388 c -4.561398,0.260959 -6.574225,0.798642 -6.90222,1.843778 -0.301699,0.961344 -0.407781,0.858836 -0.304471,-0.294212 z M 58.8125,59.316886 c 0.721875,-0.288871 1.584375,-0.253344 1.916667,0.07895 0.332291,0.332292 -0.258334,0.568641 -1.3125,0.52522 -1.164943,-0.04798 -1.4019,-0.284941 -0.604167,-0.604167 z M 48.25,50.256692 c 4.2625,-0.187451 11.2375,-0.187451 15.5,0 4.2625,0.187451 0.775,0.34082 -7.75,0.34082 -8.525,0 -12.0125,-0.153369 -7.75,-0.34082 z m 5.5,-2.918973 c 0.6875,-0.277412 1.8125,-0.277412 2.5,0 0.6875,0.277413 0.125,0.504386 -1.25,0.504386 -1.375,0 -1.9375,-0.226973 -1.25,-0.504386 z M 43.336206,40 c 0,-4.125 0.176518,-5.8125 0.392262,-3.75 0.215745,2.0625 0.215745,5.4375 0,7.5 -0.215744,2.0625 -0.392262,0.375 -0.392262,-3.75 z M 77.213756,35.133423 77,22.766846 l -2.469738,0.47212 c -1.358355,0.259666 -2.231798,0.08713 -1.940983,-0.383423 0.824257,-1.333675 4.4162,-1.00484 4.976623,0.4556 0.276723,0.721128 0.35879,6.458628 0.182372,12.75 L 77.427512,47.5 Z M 37.32814,39.5 c -0.0044,-3.85 0.17268,-5.547537 0.393592,-3.772304 0.220912,1.775232 0.224542,4.925232 0.0081,7 C 37.513323,44.802463 37.332577,43.35 37.32814,39.5 Z m 16.089003,2.144673 C 52.540959,39.361376 53.435814,27.669181 54.5,27.496036 c 0.55,-0.08949 0.6625,0.0248 0.25,0.253964 -1.32728,0.737378 -0.871522,14.034298 0.5,14.587719 0.979059,0.395059 0.972257,0.521498 -0.03139,0.583334 -0.704761,0.04342 -1.515424,-0.53095 -1.801472,-1.27638 z m 16.249524,0.68866 C 69.3,41.966667 69,37.414207 69,32.216756 v -9.44991 l -2.575823,0.492399 c -1.663379,0.317976 -2.232356,0.148934 -1.606219,-0.477203 0.533281,-0.533281 1.804901,-0.810337 2.825822,-0.61568 1.623967,0.30964 1.918781,1.635432 2.35622,10.596058 0.275,5.633175 0.4625,10.24111 0.416667,10.239858 -0.04583,-0.0013 -0.383334,-0.302278 -0.75,-0.668945 z M 56.320074,35 c 0,-3.575 0.181495,-5.0375 0.403322,-3.25 0.221826,1.7875 0.221826,4.7125 0,6.5 -0.221827,1.7875 -0.403322,0.325 -0.403322,-3.25 z"
       id="path62"
       inkscape:connector-curvature="0" />
    <path
       style="fill:#7e7e7e"
       d="M 11.179627,109.33482 C 9.3534216,108.42579 6.6534216,106.10159 5.1796269,104.16995 L 2.5,100.65788 2.2494071,57.578939 C 1.9988424,14.504866 1.9990688,14.499548 4.2535234,10.5 5.7365403,7.8690322 8.0469851,5.721305 11.004116,4.2248306 c 4.495716,-2.2750844 4.497477,-2.275159 47.173701,-2 41.321437,0.266424 42.765543,0.3406968 45.438213,2.336958 1.51822,1.1339838 3.6882,3.3044825 4.82218,4.8233305 C 110.4481,12.077143 110.5,13.263188 110.5,56.5 c 0,43.236812 -0.0519,44.42286 -2.06179,47.11488 -1.13398,1.51885 -3.30397,3.68935 -4.8222,4.82333 -2.67567,1.99849 -4.085987,2.06927 -45.938214,2.3056 -38.46344,0.21719 -43.54033,0.0633 -46.498169,-1.40899 z M 84.568108,98.535989 c 2.343733,-0.979274 3.973107,-2.587052 4.921068,-4.855842 2.008999,-4.80821 2.874559,-19.779285 1.681219,-29.079013 C 89.726946,53.352303 88.222779,52.038312 75.348525,50.779673 62.625881,49.535855 30.818687,50.488108 27.292014,52.218402 21.82614,54.900127 20.738398,57.820226 20.224689,71.190995 19.512221,89.735029 21.851292,97.675751 28.5,99.284169 c 1.1,0.266105 13.376953,0.536029 27.282119,0.59983 20.136419,0.09239 25.995265,-0.181971 28.785989,-1.34801 z M 32,76.5 V 63 H 29.5 C 27.944444,63 27,62.433333 27,61.5 27,60.320513 28.388889,60 33.5,60 38.611111,60 40,60.320513 40,61.5 40,62.433333 39.055556,63 37.5,63 H 35 V 76.5 C 35,87.833333 34.759259,90 33.5,90 32.240741,90 32,87.833333 32,76.5 Z M 42.666667,89.333333 C 42.3,88.966667 42,84.016667 42,78.333333 42,69.814815 42.263441,68 43.5,68 c 1.22619,0 1.5,1.703704 1.5,9.333333 0,5.133334 0.284167,9.617501 0.631483,9.964817 0.347316,0.347315 1.472316,0.181482 2.5,-0.368518 C 49.742856,86.067252 50,84.695899 50,76.964816 50,69.662757 50.278214,68 51.5,68 c 1.242424,0 1.5,1.888889 1.5,11 0,8.823529 -0.280303,11 -1.416667,11 -0.779166,0 -1.622916,-0.5625 -1.875,-1.25 -0.366666,-1 -0.723333,-1 -1.783333,0 -1.432776,1.351676 -4.184706,1.656961 -5.258333,0.583333 z M 58,75 c 0,-12.666667 0.233333,-15 1.5,-15 1.111111,0 1.5,1.166667 1.5,4.5 0,4.87407 0.141896,5.029611 3.129664,3.430606 C 67.96402,65.878521 69,68.265838 69,79.15383 c 0,8.242814 -0.274489,10.014271 -1.632466,10.535375 -0.897856,0.34454 -2.56492,0.04411 -3.704586,-0.667625 C 62.166992,88.08734 61.485514,88.043457 61.21208,88.86376 61.003769,89.488692 60.195833,90 59.416667,90 58.257407,90 58,87.27451 58,75 Z m 7.788475,3.628247 C 65.527073,71.262825 65.312303,70.5 63.5,70.5 c -1.806651,0 -2.028519,0.765001 -2.295002,7.913171 -0.299483,8.033381 0.485203,10.026676 3.492793,8.872556 1.050092,-0.402958 1.310329,-2.468635 1.090684,-8.65748 z m 9.782954,9.800324 C 74.395109,87.252252 74,84.768707 74,78.551016 74,69.520422 74.901519,67.75 79.5,67.75 c 3.900977,0 5.5,1.998036 5.5,6.872445 V 79 h -4 c -3.981678,0 -4,0.01783 -4,3.893011 0,2.384978 0.533851,4.097869 1.378145,4.421855 C 79.95739,87.920879 82,86.220591 82,84.3 82,83.585 82.675,83 83.5,83 c 1.969849,0 1.924685,3.432458 -0.07143,5.428571 C 82.564286,89.292857 80.796429,90 79.5,90 78.203571,90 76.435714,89.292857 75.571429,88.428571 Z M 81.5,73.5 c 0,-2.333333 -0.444444,-3 -2,-3 -1.535499,0 -2.07414,0.773074 -2.319222,3.328622 -0.285894,2.9811 -0.07709,3.294313 2,3 C 81.017998,76.568297 81.5,75.876512 81.5,73.5 Z M 59.545455,45.545455 C 61.737801,43.353108 62,42.245884 62,35.180313 62,28.691572 61.627473,26.796126 59.92742,24.634859 57.304606,21.300492 53.677638,21.231453 50.454545,24.454545 48.252979,26.656112 48,27.742985 48,35 c 0,7.257015 0.252979,8.343888 2.454545,10.545455 C 51.804545,46.895455 53.85,48 55,48 c 1.15,0 3.195455,-1.104545 4.545455,-2.454545 z M 54,35 c 0,-4 0.428571,-7 1,-7 0.571429,0 1,3 1,7 0,4 -0.428571,7 -1,7 -0.571429,0 -1,-3 -1,-7 z M 74.281119,46.915809 78.062238,47.084692 77.781119,34.792346 77.5,22.5 H 75 c -2.476156,0 -2.50273,0.09299 -2.786212,9.75 C 72.056371,37.6125 71.510167,42 71,42 70.489833,42 69.943629,37.6125 69.786212,32.25 69.50273,22.59299 69.476156,22.5 67,22.5 h -2.5 l -0.281786,11.146786 c -0.2353,9.307912 -0.0078,11.420753 1.378939,12.80751 0.982698,0.982698 2.322558,1.381447 3.281786,0.976677 0.891583,-0.376226 3.322564,-0.60805 5.40218,-0.515164 z M 44.000136,39.75 c 9.2e-5,-4.908229 0.802752,-9.834024 2.484994,-15.25 3.172291,-10.213191 3.161032,-10.707194 -0.23513,-10.316422 -2.319955,0.26694 -2.990803,1.07745 -4.289856,5.182959 l -1.539857,4.866538 -1.460143,-4.866538 C 37.720936,15.236361 37.083895,14.452122 34.75,14.183578 31.313981,13.78822 31.293972,14.573886 34.5,24 c 1.749273,5.143076 2.5,9.499841 2.5,14.508486 0,3.936999 0.3,7.458181 0.666667,7.824847 C 38.033333,46.7 39.608333,47 41.166667,47 H 44 Z"
       id="path60"
       inkscape:connector-curvature="0" />
  </g>
  <g
     id="g42"
     transform="translate(208.55018,-124.15944)">
    <path
       style="fill:#e9e9e9"
       d="M 14.263634,112.02673 C 10.003526,111.01506 4.4308327,106.68832 2.2489485,102.69831 0.66038546,99.793297 0.5,95.556731 0.5,56.5 0.5,8.7635226 0.35494728,9.8784127 7.2489485,4.62689 13.081246,0.18412284 16.788032,-0.13026962 59.5,0.19519786 95.025149,0.4659014 99.850256,0.69175664 102.63088,2.2140829 106.50816,4.336799 110.75526,9.2794844 111.75029,12.827072 112.16263,14.297182 112.5,34.4 112.5,57.5 c 0,37.780358 -0.17221,42.314553 -1.71408,45.13088 -2.32602,4.24862 -7.07575,8.07778 -11.566975,9.32511 -4.329304,1.20237 -79.924966,1.26531 -84.955311,0.0707 z M 85.341277,96.695956 c 3.844155,-2.518787 4.891944,-8.065111 4.500172,-23.82104 C 89.435524,56.54972 88.337047,54.073735 80.899996,52.720722 75.602067,51.756877 29.174011,52.309146 26.890595,53.363172 23.214363,55.060124 22.5,58.763941 22.5,76.127461 c 0,16.108658 0.095,16.913727 2.25002,19.067894 3.137214,3.135972 8.825753,3.685636 35.380521,3.418699 19.309516,-0.194105 23.009184,-0.475585 25.210736,-1.918098 z M 42.612346,90.705808 C 41.173833,89.653941 40.971345,87.810963 41.215024,77.987841 L 41.5,66.5 H 44 c 2.476834,0 2.502656,0.09068 2.786651,9.786366 C 47.157834,88.958717 49,88.199823 49,75.374561 v -9.507406 l 2.75,0.316423 2.75,0.316422 0.280853,12.259243 0.280853,12.259243 -4.373628,-0.16543 c -2.405495,-0.09099 -4.828084,0.115438 -5.383531,0.458723 -0.555447,0.343285 -1.766937,0.0706 -2.692201,-0.605971 z m 34.19389,0.07662 C 73.229396,89.571979 71.662618,84.63942 72.195704,76.267465 72.534526,70.946372 73.03986,69.386141 74.916685,67.866381 80.29196,63.513747 85.868593,66.777329 86.251858,74.5 L 86.5,79.5 82.25,79.807498 C 78.524743,80.077029 78,80.409282 78,82.498481 c 0,3.418227 1.832683,4.071794 2.977122,1.061693 1.918414,-5.045812 6.323072,-2.249368 4.872143,3.093244 -1.020365,3.757189 -4.903084,5.530024 -9.043029,4.129012 z M 80.809629,73.25 C 80.403696,71.142157 78.628947,71.275066 78.176676,73.447179 77.988034,74.353163 78.539273,75 79.5,75 c 1.029958,0 1.52043,-0.655397 1.309629,-1.75 z M 30,77.5 V 64 h -2.566422 c -2.209776,0 -2.522451,-0.382158 -2.25,-2.75 0.315785,-2.744465 0.332524,-2.75 8.316422,-2.75 7.983898,0 8.000637,0.0055 8.316422,2.75 0.272451,2.367842 -0.04022,2.75 -2.25,2.75 H 37 V 77.5 91 H 33.5 30 Z M 57,74.419144 C 57,60.911853 57.251513,58 58.418213,58 61.834327,58 63,59.264012 63,62.968317 c 0,3.414031 0.215549,3.713134 2.37798,3.29976 C 69.287651,65.520696 71,69.141936 71,78.157407 c 0,4.241816 -0.429975,8.843313 -0.955499,10.225547 -0.877015,2.306724 -1.451994,2.510779 -7,2.484244 L 57,90.838289 Z m 8,4.639873 C 65,75.241476 64.55,71.839919 64,71.5 63.367021,71.108797 63,73.656282 63,78.440983 63,82.813661 63.421528,86 64,86 c 0.570619,0 1,-2.980328 1,-6.940983 z M 42.012766,39.75 c 0.0079,-3.872006 0.959106,-9.213207 2.5,-14.038095 C 47.376289,16.745564 47.467228,16 45.69737,16 c -0.7455,0 -1.943186,2.459256 -2.800316,5.75 -0.823726,3.1625 -1.925042,5.665013 -2.447369,5.561141 -0.522327,-0.103873 -1.560689,-2.691373 -2.307472,-5.75 C 37.138571,17.45049 36.328283,16 35.03559,16 33.461962,16 33.572946,16.808747 36.143377,24.072481 38.233784,29.979725 39,34.003093 39,39.072481 39,44.563609 39.311018,46 40.5,46 c 1.171972,0 1.502792,-1.366785 1.512766,-6.25 z M 59.01212,44.485396 C 60.857926,42.261336 61.391706,30.052209 59.776576,27 58.289662,24.190087 53.754028,23.129323 51.439528,25.050187 49.5884,26.586487 49.389463,42.989463 51.2,44.8 c 1.682076,1.682076 6.309688,1.495717 7.81212,-0.314604 z m -6.405131,-2.067183 c -0.908842,-2.368404 -0.702022,-13.719929 0.278151,-15.266606 0.469983,-0.741616 1.700592,-1.186844 2.734687,-0.989395 1.602783,0.306033 1.923795,1.440704 2.17585,7.690893 C 58.090332,41.159685 57.163481,44 54.484544,44 53.785733,44 52.940833,43.288196 52.606989,42.418213 Z m 18.660953,2.438389 c 1.602934,-0.857865 2.231637,-0.857865 2.517592,0 0.209623,0.628869 0.906133,1.144315 1.547799,1.145436 0.837212,0.0015 1.078453,-3.104828 0.854283,-11 C 76.015805,28.950917 75.470192,24 74.975142,24 c -0.49505,0 -1.029477,4.114842 -1.187616,9.144093 -0.235306,7.483347 -0.61053,9.344948 -2.065993,10.25 C 68.927094,45.131764 68.032485,42.562488 68.015313,32.75 68.006289,27.593542 67.58931,24 67,24 c -0.606061,0 -1,4.333333 -1,11 0,11.828896 0.352012,12.487528 5.267942,9.856602 z"
       id="path56"
       inkscape:connector-curvature="0" />
    <path
       style="fill:#d1d1d1"
       d="M 9.5203822,109.71317 C 7.2890352,108.4494 4.5505981,105.71096 3.2868326,103.47962 1.0459819,99.523096 1.0328054,99.251233 1.0164504,56.636155 1.0001195,14.08369 1.0162669,13.743366 3.2392523,9.7880972 4.4904158,7.5619522 7.2870486,4.7440079 9.5771099,3.4019426 L 13.675715,1 H 56.436728 C 104.0687,1 103.55948,0.93375482 108.80645,7.8128848 L 111.5,11.344316 V 56.5 101.65568 l -2.69355,3.53144 c -5.24986,6.88291 -4.7238,6.81476 -52.457579,6.79643 -42.599541,-0.0164 -42.872028,-0.0296 -46.8284888,-2.27038 z M 86.728461,95.728926 c 2.748675,-2.748213 2.774393,-2.896364 3.117434,-17.958249 0.406781,-17.860526 -0.452534,-21.998781 -5.06317,-24.383034 -2.661614,-1.376374 -7.039626,-1.620602 -28.711604,-1.601679 -16.014507,0.01398 -26.616947,0.4295 -28.36949,1.111821 C 23.098124,54.690075 22,59.008296 22,75.318658 c 0,15.490716 0.856493,19.774603 4.297845,21.496369 3.706942,1.854644 6.339455,2.004156 32.430616,1.841882 L 83.956922,98.5 Z M 30.666667,90.333333 C 30.3,89.966667 30,83.922965 30,76.902884 30,64.427718 29.949123,64.131876 27.75,63.819551 c -1.460261,-0.20739 -2.364077,-1.12391 -2.575009,-2.611205 -0.319207,-2.250741 -0.17638,-2.286448 8,-2 7.494884,0.262572 8.325009,0.486588 8.325009,2.246569 0,1.261564 -0.886677,2.163743 -2.5,2.54371 -2.492472,0.587021 -2.50084,0.628564 -2.779025,13.795085 C 35.945458,90.833951 35.912977,91 33.637642,91 c -1.26737,0 -2.604309,-0.3 -2.970975,-0.666667 z m 10.9,-0.1 C 41.255,89.921667 41,84.566667 41,78.333333 V 67 h 2.5 c 2.492754,0 2.5,0.02778 2.5,9.583333 0,7.22092 0.308141,9.481222 1.25,9.16911 0.849602,-0.28154 1.3421,-3.351258 1.537526,-9.583333 C 49.069705,67.170496 49.12084,67 51.537526,67 H 54 v 11.9 11.9 h -5.933333 c -3.263334,0 -6.188334,-0.255 -6.5,-0.566667 z M 57,74.94274 V 59 h 2.5 c 2.29917,0 2.5,0.364321 2.5,4.535184 0,4.225306 0.136655,4.462048 2,3.464816 1.420989,-0.76049 2.579011,-0.76049 4,0 1.802085,0.964447 2,2.093823 2,11.412739 0,7.058264 -0.396924,10.669218 -1.25,11.371684 -0.6875,0.566121 -3.6125,1.045454 -6.5,1.065184 L 57,90.88548 Z M 64.79381,78.75 C 64.632214,74.7625 64.05,71.5 63.5,71.5 c -0.55,0 -1.132214,3.2625 -1.29381,7.25 C 61.959837,84.828984 62.168812,86 63.5,86 c 1.331188,0 1.540163,-1.171016 1.29381,-7.25 z m 9.861178,10.421259 c -2.27315,-2.511802 -2.387732,-18.295658 -0.149068,-20.534322 2.299728,-2.299728 5.175997,-2.875494 7.706307,-1.542632 3.252566,1.713316 3.755195,2.79995 3.77246,8.155695 L 86,80 h -4 c -3.777778,0 -4,0.166667 -4,3 0,2 0.5,3 1.5,3 0.833333,0 1.5,-0.888889 1.5,-2 0,-1.466667 0.666667,-2 2.5,-2 2.080846,0 2.5,0.476999 2.5,2.845012 0,1.564757 -0.822933,3.589757 -1.828741,4.5 -2.427287,2.196665 -7.454135,2.104882 -9.516271,-0.173753 z M 80.819551,73.75 C 80.643798,72.5125 80.05,71.5 79.5,71.5 c -0.55,0 -1.143798,1.0125 -1.319551,2.25 C 77.960574,75.298168 78.372176,76 79.5,76 c 1.127824,0 1.539426,-0.701832 1.319551,-2.25 z M 42,40.200642 c 0,-3.599071 1.094405,-9.290098 2.884555,-15 C 47.4764,16.933632 47.593937,16 46.042842,16 44.368201,16 42,21.486391 42,25.36602 42,27.280975 40.128571,27.570495 39.517987,25.75 39.287404,25.0625 38.609182,22.5875 38.010828,20.25 37.210859,17.12488 36.420541,16 35.024865,16 33.240497,16 33.302699,16.520326 36.063409,24.687588 38.084544,30.666898 39,35.343014 39,39.687588 39,44.631954 39.325085,46 40.5,46 41.6609,46 42,44.68896 42,40.200642 Z m 17.586655,3.307449 c 1.247808,-1.904395 1.543756,-4.25449 1.255246,-9.967807 -0.393892,-7.800203 -0.886576,-8.875969 -4.575252,-9.989993 -1.636587,-0.494268 -2.905814,-0.002 -4.75,1.842151 C 49.319585,27.589506 49,28.775524 49,34.732039 49,42.882635 50.669254,46 55.033651,46 c 2.008914,0 3.429784,-0.777658 4.553004,-2.491909 z m -6.551471,-1.44235 C 51.405777,39.021167 51.731374,28.467829 53.5,27 56.244715,24.722089 58,27.525936 58,34.188186 58,40.070116 56.798423,44 55,44 54.488702,44 53.604535,43.129584 53.035184,42.065741 Z M 71.8,44.8 c 0.933333,-0.933333 1.2,-0.933333 1.2,0 0,0.66 0.9,1.2 2,1.2 1.878788,0 2,-0.666667 2,-11 0,-10.333333 -0.121212,-11 -2,-11 -1.849809,0 -2,0.666667 -2,8.877555 0,6.206708 -0.403749,9.212637 -1.342009,9.991324 C 69.444049,44.706288 69,43.11326 69,33.333333 69,24.666667 68.857143,24 67,24 c -1.85843,0 -2,0.666667 -2,9.418213 0,5.180016 0.273145,10.130016 0.606989,11 C 66.322361,46.282443 70.085563,46.514437 71.8,44.8 Z"
       id="path54"
       inkscape:connector-curvature="0" />
    <path
       style="fill:#a3a3a3"
       d="M 11.5,110.58264 C 7.3685396,108.73853 3.1536787,104.02264 1.9803043,99.931325 0.68032628,95.398567 0.69417982,17.640988 1.9958002,12.955643 3.1128064,8.9348398 8.1283813,3.6397882 12.3151,2.0613339 14.13559,1.3749824 29.834769,1 56.749375,1 96.96045,1 98.515043,1.070916 102.69841,3.0960487 c 2.88709,1.397616 5.15818,3.5094785 6.81572,6.3378575 L 112,13.675715 v 42.701981 c 0,40.716535 -0.0929,42.884104 -1.99831,46.619004 -1.23361,2.41807 -3.65895,4.89021 -6.33786,6.46016 L 99.324285,112 56.912142,111.96086 C 23.705756,111.93021 13.848836,111.63106 11.5,110.58264 Z M 83.881161,97.891583 C 89.448477,95.950806 90.438371,92.54558 90.390359,75.5 90.34446,59.204669 89.643063,56.122682 85.338614,53.302299 82.862766,51.680061 79.931651,51.5 56,51.5 20.51304,51.5 21.626718,50.740364 21.547405,75 c -0.05423,16.586764 0.946981,20.43584 5.873714,22.581082 3.980982,1.733435 51.626562,1.995461 56.460042,0.310501 z M 31,77.5 V 64 h -2.5 c -2,0 -2.5,-0.5 -2.5,-2.5 0,-2.444444 0.166667,-2.5 7.5,-2.5 7.333333,0 7.5,0.05556 7.5,2.5 0,2 -0.5,2.5 -2.5,2.5 H 36 V 77.5 91 H 33.5 31 Z M 41.606989,89.418213 C 41.273145,88.548229 41,83.148229 41,77.418213 V 67 h 2.5 c 2.491228,0 2.5,0.03333 2.5,9.5 0,7.777778 0.27193,9.5 1.5,9.5 1.22807,0 1.5,-1.722222 1.5,-9.5 0,-9.466667 0.0088,-9.5 2.5,-9.5 H 54 V 79 91 H 51.5 C 50.125,91 49,90.46 49,89.8 c 0,-0.933333 -0.266667,-0.933333 -1.2,0 -1.714437,1.714437 -5.477639,1.482443 -6.193011,-0.381787 z M 57,74.943313 V 59 h 2.5 c 2.28452,0 2.5,0.375911 2.5,4.361328 0,4.115525 0.141223,4.334332 2.505746,3.882324 C 69.096239,66.366124 70,68.29995 70,79 c 0,6.614694 -0.402407,10.070634 -1.25,10.735226 -0.6875,0.539063 -3.6125,1.018654 -6.5,1.065758 L 57,90.886626 Z m 8,3.49767 C 65,72.493443 64.698942,71 63.5,71 62.30303,71 62,72.481481 62,78.333333 c 0,4.033334 0.287766,7.6211 0.63948,7.972814 C 64.226847,87.893514 65,85.317397 65,78.440983 Z m 9.556704,10.336511 C 73.45795,87.208802 73,84.165517 73,78.432481 73,69.220433 74.315275,67 79.772037,67 83.797171,67 86,70.085149 86,75.722506 V 80 h -4.063358 c -3.92475,0 -4.05267,0.103195 -3.75,3.025189 0.372021,3.591522 2.177498,4.431418 2.632909,1.224811 C 81.280365,81.005348 86,81.030396 86,84.277494 86,88.178076 83.271478,91 79.5,91 77.13401,91 75.644271,90.330213 74.556704,88.777494 Z M 81,73.5 C 81,71.944444 80.433333,71 79.5,71 78.566667,71 78,71.944444 78,73.5 78,75.055556 78.566667,76 79.5,76 80.433333,76 81,75.055556 81,73.5 Z M 59.75,44.207895 C 60.507528,43.244227 61,39.541218 61,34.80887 61,26.385755 59.279723,23 55,23 c -4.279723,0 -6,3.385755 -6,11.80887 0,7.794251 0.908349,10.402835 4,11.487146 2.132962,0.748078 5.287648,-0.227828 6.75,-2.088121 z M 53.209558,34.75 C 53.439714,28.212419 53.811349,26.5 55,26.5 c 1.188651,0 1.560286,1.712419 1.790442,8.25 C 57.064454,42.533278 56.963164,43 55,43 53.036836,43 52.935546,42.533278 53.209558,34.75 Z M 70.777494,45.443296 C 72.023226,44.570751 73,44.351005 73,44.943296 73,45.524483 73.914738,46 75.032751,46 c 1.939965,0 2.019845,-0.513516 1.75,-11.25 C 76.551331,25.542334 76.227689,23.5 75,23.5 c -1.19283,0 -1.60239,1.943301 -2,9.489707 -0.4175,7.923896 -0.782645,9.543578 -2.21299,9.816197 -1.507987,0.287417 -1.747337,-0.848265 -2,-9.489707 C 68.555112,25.384915 68.211969,23.5 67,23.5 c -1.218329,0 -1.55373,1.944281 -1.786131,10.354001 -0.349021,12.629726 0.765035,14.950358 5.563625,11.589295 z M 42.157871,41.517091 C 41.85134,37.662966 43.429329,30.485532 47.603019,16.75 47.987816,15.483641 47.574071,15 46.105932,15 c -1.55159,0 -2.281708,0.999747 -3.103788,4.25 -2.175598,8.601649 -2.582359,8.782461 -4.499271,2 C 37.144551,16.443954 36.304828,15 34.868225,15 33.840701,15 33,15.290958 33,15.646573 c 0,0.355615 1.384738,4.968115 3.077196,10.25 2.231816,6.965135 2.987307,11.046103 2.75,14.85479 -0.292843,4.70001 -0.116455,5.251221 1.68001,5.25 1.763979,-0.0012 1.964001,-0.544588 1.650665,-4.484272 z"
       id="path52"
       inkscape:connector-curvature="0" />
    <path
       style="fill:#717171"
       d="M 10.969961,109.75 C 5.3782947,106.92518 2.31199,102.3777 1.4959213,95.699537 1.1464616,92.839792 1.0044185,73.175 1.18027,52 1.5232209,10.703877 1.5571362,10.425724 6.8314247,5.6525585 11.561503,1.371897 14.576348,1.0896516 56,1.0494698 c 24.227887,-0.023502 40.937877,0.3610218 43.218945,0.9945365 4.766975,1.3239191 9.677965,5.465011 11.417025,9.6271837 1.73693,4.157042 2.01008,84.485008 0.3027,89.01371 -1.57846,4.18672 -6.87351,9.20229 -10.89431,10.3193 -2.056305,0.57125 -20.563785,0.98699 -44.08247,0.99022 -40.058668,0.006 -40.590786,-0.021 -44.991929,-2.24442 z M 85.400023,97.657464 C 90.035009,94.620505 90.5,92.600297 90.5,75.5 c 0,-24.925014 1.331813,-24 -34.554633,-24 -28.821757,0 -30.562286,0.282838 -32.983547,5.359865 -1.516931,3.180782 -2.484376,22.802173 -1.509133,30.607748 0.999219,7.997482 3.681205,10.796381 11.193208,11.68114 3.219758,0.379221 15.837448,0.571746 28.039312,0.427834 18.671177,-0.220214 22.585885,-0.524194 24.714816,-1.919123 z M 31.701236,90.367903 C 31.315556,89.982223 31,83.922965 31,76.902884 31,64.427718 30.949123,64.131876 28.75,63.819551 27.304043,63.614192 26.385808,62.695957 26.180449,61.25 25.87299,59.085138 26.149953,59 33.5,59 c 7.350047,0 7.62701,0.08514 7.319551,2.25 -0.203921,1.435837 -1.123377,2.364275 -2.540984,2.565807 -2.150288,0.305694 -2.230355,0.737661 -2.5,13.487655 -0.231608,10.951442 -0.539645,13.221898 -1.827331,13.468762 -0.85182,0.163303 -1.86432,-0.01864 -2.25,-0.404321 z m 10.297758,-1.369782 c -0.615807,-1.150646 -0.94968,-6.146945 -0.785183,-11.75 C 41.485299,68.00074 41.615578,67.483585 43.75,67.180449 45.956575,66.867065 46,67.05685 46,77.013782 c 0,7.676651 0.304868,10.051816 1.25,9.73849 0.857567,-0.284296 1.339855,-3.449921 1.536212,-10.083333 C 49.068356,67.137412 49.107439,67 51.536212,67 H 54 v 11.531385 c 0,9.370774 -0.283438,11.64015 -1.512735,12.111875 -0.832004,0.31927 -2.084596,0.105888 -2.783538,-0.474182 -0.803941,-0.667211 -1.809547,-0.713937 -2.737265,-0.127188 -2.29047,1.44864 -3.803743,1.130669 -4.967468,-1.043769 z m 15.667673,1.335212 C 57.3,89.966667 57,82.735369 57,74.263782 c 0,-15.401376 2.2e-4,-15.402853 2.25,-15.083333 1.866763,0.265123 2.302075,1.037287 2.555732,4.533405 0.293947,4.051426 0.415666,4.191866 3.157788,3.643442 2.204969,-0.440994 3.099862,-0.107382 3.944268,1.470405 1.386945,2.591529 1.429444,17.673658 0.05703,20.23804 -1.137596,2.125619 -3.951676,2.547399 -5.651948,0.847127 -0.782843,-0.782843 -1.275194,-0.782843 -1.759017,0 -0.74991,1.213379 -2.86544,1.44221 -3.887184,0.420465 z M 65,79 c 0,-6.444444 -0.291667,-8 -1.5,-8 -1.208333,0 -1.5,1.555556 -1.5,8 0,6.444444 0.291667,8 1.5,8 1.208333,0 1.5,-1.555556 1.5,-8 z M 75,89 C 73.34287,87.34287 73,85.666667 73,79.222506 73,70.048416 74.510603,67 79.056704,67 c 4.491278,0 7.116765,3.231153 6.748115,8.304819 C 85.502172,79.470101 85.46971,79.502192 81.25,79.807498 77.882884,80.051117 77,80.501536 77,81.97571 77,86.775083 80.557539,89.135989 81.180449,84.75 81.39019,83.273184 82.187274,82.5 83.5,82.5 c 2.800258,0 3.137133,3.862867 0.561493,6.438507 C 81.448395,91.551605 77.577871,91.577871 75,89 Z M 81,73.5 C 81,70.708258 78.577497,70.052684 77.606989,72.581787 76.592782,75.224768 76.90871,76 79,76 c 1.466667,0 2,-0.666667 2,-2.5 z M 43.133487,37.989973 C 43.481905,33.320488 44.715967,26.575 45.875848,23 c 2.590996,-7.986005 2.591158,-8 0.09277,-8 -2.170008,0 -2.275733,0.181762 -3.984968,6.850942 -1.312998,5.123122 -1.737394,4.932539 -3.376524,-1.516291 -0.949367,-3.735092 -1.726729,-4.907327 -3.417985,-5.154202 -2.792805,-0.407669 -2.759765,0.59709 0.317835,9.665341 C 37.190811,29.807276 38,34.378457 38,38.929123 c 0,7.120489 0.45156,8.320893 2.951236,7.845419 1.191462,-0.226632 1.694911,-2.253248 2.182251,-8.784569 z M 59,45 C 60.673653,43.326347 61,41.666667 61,34.828741 61,25.752683 59.644166,23 55.173753,23 50.237279,23 49,25.424612 49,35.098284 c 0,7.94797 0.212516,8.93716 2.222506,10.345012 C 54.213788,47.538472 56.597387,47.402613 59,45 Z M 53.6875,42.354167 C 53.309375,41.976042 53,38.333671 53,34.260009 c 0,-6.515681 0.210514,-7.366116 1.75,-7.069638 1.478722,0.284776 1.75,1.484596 1.75,7.739991 0,6.828678 -0.93627,9.300034 -2.8125,7.423805 z M 70.925,45.75 c 1.06,-1 1.416667,-1 1.783333,0 0.252084,0.6875 1.320834,1.25 2.375,1.25 C 76.865741,47 77,46.15942 77,35 77,23.740426 76.87883,23 75.036212,23 c -1.797688,0 -1.987996,0.823688 -2.25,9.738416 C 72.540944,41.083719 72.249657,42.524741 70.75,42.81174 69.176986,43.112777 69,42.127884 69,33.073324 69,23.666667 68.867637,23 67,23 c -1.882353,0 -2,0.666667 -2,11.333333 0,6.233334 0.3,11.633334 0.666667,12 1.073627,1.073628 3.825557,0.768343 5.258333,-0.583333 z"
       id="path50"
       inkscape:connector-curvature="0" />
    <path
       style="fill:#4f4f4f"
       d="M 14.364681,111.04739 C 9.8401966,109.96814 5.4916258,106.5558 3.6232867,102.61856 2.2042114,99.628085 2,93.818355 2,56.436728 V 13.675715 L 4.4658954,9.4679827 C 8.96828,1.7852443 8.1097241,1.9021114 57.71501,2.2196866 L 101.5,2.5 l 3.26509,2.3288383 c 6.80785,4.8557273 6.70443,4.1087466 7.01553,50.6711617 l 0.28061,42 -2.28061,4.44146 c -2.68366,5.22637 -5.95551,7.84808 -11.358014,9.10107 -4.66087,1.08098 -79.528394,1.08532 -84.057925,0.005 z M 85.677156,97.404488 C 90.230192,94.024585 91.207481,89.372763 90.80423,73 90.411665,57.06113 89.330871,53.700431 84.127294,52.238255 82.682282,51.832215 69.554559,51.5 54.954575,51.5 c -29.986082,0 -30.947365,0.211561 -32.899383,7.240544 -1.132784,4.079019 -1.442761,27.071611 -0.433033,32.120251 0.916564,4.582821 4.785902,7.954302 9.710758,8.461303 2.291896,0.235945 14.821803,0.372496 27.844239,0.303446 22.366481,-0.118594 23.833417,-0.241543 26.5,-2.221056 z M 42.724571,90.391238 C 42.326057,89.992724 42,84.533671 42,78.260009 42,67.935608 42.166039,66.885128 43.75,67.18826 c 1.499657,0.286999 1.790944,1.728021 2.036212,10.073324 C 45.943629,82.617713 46.416129,87 46.836212,87 49.155344,87 50,83.990291 50,75.726676 c 0,-7.55785 0.234301,-8.825391 1.580444,-8.55 1.325527,0.271174 1.579765,2.097558 1.576239,11.323324 l -0.0042,11 -2.826239,0.153379 c -1.554431,0.08436 -3.737682,0.447916 -4.851668,0.807905 -1.113985,0.359989 -2.351485,0.328468 -2.75,-0.07005 z m 21.914002,-0.086 c -0.405035,-0.405035 -2.17691,-0.75191 -3.9375,-0.770833 L 57.5,89.5 V 74.513695 c 0,-13.477616 0.176175,-15.020233 1.75,-15.323324 1.480992,-0.285213 1.75,0.442846 1.75,4.736305 0,4.720809 1.046264,6.425518 2.5,4.073324 1.215493,-1.966709 4.540033,-1.024904 5.524751,1.5651 1.373736,3.613201 1.186863,15.462364 -0.289493,18.355931 -1.33891,2.624182 -2.930456,3.550438 -4.096685,2.384207 z m 0.901451,-5.608685 c 0.317971,-1.266896 0.439044,-4.754396 0.269052,-7.75 C 65.543678,72.269692 65.217365,71.5 63.5,71.5 c -1.760064,0 -2.036167,0.767158 -2.301473,6.394673 -0.16581,3.51707 -0.06743,7.00457 0.218616,7.75 0.834163,2.173795 3.49278,1.562405 4.122881,-0.94812 z m 9.914521,3.848901 C 73.353508,86.444417 73,85.157598 73,79.610554 73,71.572478 74.203174,68.238095 77.392459,67.437635 82.554028,66.142164 86,69.565869 86,75.989555 c 0,2.691509 -0.299347,2.917108 -4.25,3.202947 -4.128495,0.298707 -4.25,0.407169 -4.25,3.793803 0,4.034176 2.882932,5.533265 3.98195,2.070565 C 82.240548,82.666741 86,82.241194 86,84.545455 86,86.567894 81.536682,91 79.5,91 78.625,91 76.804545,89.895455 75.454545,88.545454 Z M 81.819551,73.75 C 81.60981,72.273184 80.812726,71.5 79.5,71.5 c -1.312726,0 -2.10981,0.773184 -2.319551,2.25 C 76.918321,75.59568 77.335138,76 79.5,76 c 2.164862,0 2.581679,-0.40432 2.319551,-2.25 z M 31,76.5 V 63 H 28.426676 C 26.514169,63 25.939897,62.550608 26.190371,61.25 26.472913,59.782878 27.654474,59.5 33.5,59.5 c 5.845526,0 7.027087,0.282878 7.309629,1.75 C 41.060103,62.550608 40.485831,63 38.573324,63 H 36 V 76.5 90 H 33.5 31 Z M 43.015006,40.25 c 0.0096,-4.338643 0.902692,-9.607905 2.499864,-14.75 3.062544,-9.85986 3.085617,-10.72592 0.274927,-10.319551 -1.650065,0.238566 -2.531646,1.433445 -3.478561,4.71478 -0.697598,2.417375 -1.466094,4.592962 -1.707769,4.834637 -0.241675,0.241675 -1.051383,-1.736178 -1.799351,-4.395229 -1.177261,-4.185198 -1.744081,-4.878925 -4.219601,-5.164334 -2.436477,-0.280908 -2.746614,-0.05893 -2.095763,1.5 C 35.846765,24.713487 38,33.843242 38,40.038095 38,46.79746 38.072731,47 40.5,47 c 2.418271,0 2.500491,-0.220668 2.515006,-6.75 z m 16.156253,5.095012 c 2.496562,-2.259357 2.695686,-18.33521 0.257312,-20.773583 -2.004972,-2.004973 -6.830672,-2.026471 -8.81786,-0.03928 -3.351461,3.351462 -3.418213,16.813106 -0.101543,20.477985 2.190706,2.420702 6.186584,2.575185 8.662091,0.334881 z M 53.449053,41.727831 C 53.145454,40.936664 53.032717,37.411743 53.198527,33.894673 53.428757,29.011174 53.854476,27.5 55,27.5 c 1.198502,0 1.5,1.490741 1.5,7.416667 0,5.042779 -0.399925,7.549975 -1.249474,7.833158 -0.687211,0.22907 -1.497873,-0.230827 -1.801473,-1.021994 z m 17.616688,4.236985 C 72.399075,45.251238 73,45.251238 73,45.964816 73,46.534167 73.9,47 75,47 c 1.888889,0 2,-0.666667 2,-12 0,-11.333333 -0.111111,-12 -2,-12 -1.849809,0 -2,0.666667 -2,8.877555 0,6.206708 -0.403749,9.212637 -1.342009,9.991324 C 69.444049,43.706288 69,42.11326 69,32.333333 69,23.666667 68.857143,23 67,23 c -1.882353,0 -2,0.666667 -2,11.333333 0,6.233334 0.3,11.633334 0.666667,12 0.968762,0.968763 3.182703,0.817649 5.399074,-0.368517 z"
       id="path48"
       inkscape:connector-curvature="0" />
    <path
       style="fill:#303030"
       d="m 9.9216798,108.7262 c -1.8557476,-1.25058 -4.397295,-3.79213 -5.6478832,-5.64788 L 2,99.704234 V 56.5 C 2,13.341813 2.002398,13.292243 4.25,9.9898309 5.4875,8.1715663 7.769992,5.7425188 9.3222044,4.5919476 12.069476,2.555544 13.299048,2.4925477 55.631472,2.2193255 99.084018,1.9388737 99.121702,1.9404309 103.10868,4.1812353 111.25336,8.7588053 111,7.0746735 111,56.635899 v 43.899831 l -2.43894,3.58922 C 103.85983,111.04344 104.19034,111 56.246754,111 H 13.295766 Z M 85.601927,98.100362 C 89.95162,95.210449 90.473637,93.147677 90.815174,77.5 91.402311,50.599972 91.929497,51.003749 56.217881,51.001554 c -29.044416,-0.0018 -31.214844,0.427739 -33.918687,6.712457 -2.063346,4.795966 -2.379815,28.831373 -0.453675,34.455997 2.530954,7.390775 4.302473,7.7592 36.154481,7.51909 19.905014,-0.15005 25.961186,-0.498636 27.601927,-1.588736 z M 31.666667,89.333333 C 31.3,88.966667 31,82.891667 31,75.833333 V 63 H 28.426676 C 26.515448,63 25.9392,62.549739 26.187014,61.25 26.458463,59.826301 27.777338,59.444866 33.260338,59.20431 39.405961,58.934683 40,59.082799 40,60.884759 40,62.17274 39.216474,62.972176 37.75,63.180449 35.562421,63.491135 35.492259,63.86759 35.220975,76.75 35.008601,86.834955 34.630388,90 33.637642,90 c -0.71737,0 -1.604309,-0.3 -1.970975,-0.666667 z m 11,0 C 42.3,88.966667 42,83.791667 42,77.833333 42,68.87037 42.258974,67 43.5,67 c 1.227412,0 1.5,1.715665 1.5,9.440983 0,9.584776 0.818578,11.7844 3.543805,9.522662 C 49.618622,85.071626 50,82.430075 50,75.877555 50,68.653062 50.27931,67 51.5,67 52.746377,67 53,68.944444 53,78.5 53,87.846225 52.730126,90 51.559017,90 c -0.792541,0 -1.743331,-0.48921 -2.112868,-1.087132 -0.483823,-0.782843 -0.976174,-0.782843 -1.759017,0 -1.211905,1.211905 -3.995868,1.445062 -5.020465,0.420465 z M 58,74.379131 C 58,61.375459 58.23169,59 59.5,59 c 1.133333,0 1.5,1.222222 1.5,5 0,5.012532 0.649259,5.950741 2.699337,3.900663 0.604635,-0.604635 2.059504,-0.794592 3.233042,-0.422125 2.027244,0.643422 2.119582,1.209691 1.850663,11.349337 L 68.5,89.5 63.25,89.629131 58,89.758262 Z m 7.797742,5.270519 C 66.120553,72.244929 64.84024,69.057774 62.367321,71.110114 61.459454,71.863577 61,74.499914 61,78.955778 c 0,7.094276 0.452925,8.29417 2.951236,7.818453 1.181991,-0.225069 1.619274,-1.912286 1.846506,-7.124581 z m 9.074703,8.696655 C 73.96979,87.258673 73.5,84.042745 73.5,78.951293 c 0,-6.209292 0.377002,-8.1579 1.904988,-9.846305 C 79.433119,64.653952 84.568392,67.4936 85.16143,74.5 l 0.33857,4 -4.306772,0.310272 c -4.303785,0.310057 -4.306559,0.312825 -4,3.991683 0.355858,4.270469 3.550343,5.894635 4.494279,2.285019 C 81.987673,83.939138 83.03865,83 84.023012,83 c 1.352573,0 1.655204,0.5496 1.238936,2.25 -0.302947,1.2375 -0.990918,2.8125 -1.528825,3.5 -1.413138,1.806135 -7.247281,1.54033 -8.860678,-0.403695 z M 82,74.2 C 82,71.499542 79.949979,69.796624 78.323794,71.146238 76.0011,73.073903 76.710178,76 79.5,76 81.240741,76 82,75.453333 82,74.2 Z M 43.01116,40.75 c 0.0073,-4.09615 1.030925,-9.516859 2.970293,-15.729707 3.014948,-9.658511 2.859521,-11.739371 -0.790327,-10.580954 -1.412606,0.448344 -2.390214,2.187242 -3.288494,5.849337 L 40.624338,25.5 l -1.424986,-5 c -0.783742,-2.75 -1.53833,-5.126612 -1.676862,-5.28136 -0.666451,-0.744462 -4.536893,-1.004352 -4.952108,-0.332521 -0.25942,0.419752 0.856117,4.892114 2.478972,9.938584 C 37.073175,31.118026 38,36.041795 38,40.500051 38,46.766663 38.089746,47 40.5,47 c 2.39881,0 2.500452,-0.252976 2.51116,-6.25 z m 16.378129,4.717854 c 3.696071,-3.696072 3.458371,-18.553292 -0.346122,-21.633983 -2.879206,-2.33144 -5.218686,-2.322081 -8.126482,0.03251 -1.881796,1.523786 -2.382117,3.079336 -2.725643,8.474297 -0.478374,7.51272 0.125893,10.8334 2.381888,13.089395 2.003682,2.003681 6.829777,2.024363 8.816359,0.03778 z m -5.722622,-3.134521 c -1.135998,-1.135998 -0.746798,-14.165775 0.445136,-14.902431 1.767481,-1.092364 2.856332,1.650646 2.872884,7.237311 0.02083,7.028846 -1.180063,9.803078 -3.31802,7.66512 z M 77,34.798916 C 77,22.990734 76.975529,22.864373 74.75,23.180449 72.638717,23.480299 72.469174,24.085693 72,33 c -0.280702,5.333333 -0.938596,9.5 -1.5,9.5 -0.579247,0 -1.120753,-4.129563 -1.286992,-9.814703 -0.277389,-9.486251 -0.361052,-9.804172 -2.5,-9.5 -2.087968,0.296922 -2.229178,0.865493 -2.499197,10.062824 -0.369443,12.583886 0.177899,13.602109 7.27747,13.538313 L 77,46.736934 Z"
       id="path46"
       inkscape:connector-curvature="0" />
    <path
       style="fill:#7e7e7e"
       d="M 11.179627,109.33482 C 9.3534216,108.42579 6.6534216,106.10159 5.1796269,104.16995 L 2.5,100.65788 2.2494071,57.578939 C 1.9988424,14.504866 1.9990688,14.499548 4.2535234,10.5 5.7365403,7.8690322 8.0469851,5.721305 11.004116,4.2248306 c 4.495716,-2.2750844 4.497477,-2.275159 47.173701,-2 41.321437,0.266424 42.765543,0.3406968 45.438213,2.336958 1.51822,1.1339838 3.6882,3.3044825 4.82218,4.8233305 C 110.4481,12.077143 110.5,13.263188 110.5,56.5 c 0,43.236812 -0.0519,44.42286 -2.06179,47.11488 -1.13398,1.51885 -3.30397,3.68935 -4.8222,4.82333 -2.67567,1.99849 -4.085987,2.06927 -45.938214,2.3056 -38.46344,0.21719 -43.54033,0.0633 -46.498169,-1.40899 z M 84.568108,98.535989 c 2.343733,-0.979274 3.973107,-2.587052 4.921068,-4.855842 2.008999,-4.80821 2.874559,-19.779285 1.681219,-29.079013 C 89.726946,53.352303 88.222779,52.038312 75.348525,50.779673 62.625881,49.535855 30.818687,50.488108 27.292014,52.218402 21.82614,54.900127 20.738398,57.820226 20.224689,71.190995 19.512221,89.735029 21.851292,97.675751 28.5,99.284169 c 1.1,0.266105 13.376953,0.536029 27.282119,0.59983 20.136419,0.09239 25.995265,-0.181971 28.785989,-1.34801 z M 32,76.5 V 63 H 29.5 C 27.944444,63 27,62.433333 27,61.5 27,60.320513 28.388889,60 33.5,60 38.611111,60 40,60.320513 40,61.5 40,62.433333 39.055556,63 37.5,63 H 35 V 76.5 C 35,87.833333 34.759259,90 33.5,90 32.240741,90 32,87.833333 32,76.5 Z M 42.666667,89.333333 C 42.3,88.966667 42,84.016667 42,78.333333 42,69.814815 42.263441,68 43.5,68 c 1.22619,0 1.5,1.703704 1.5,9.333333 0,5.133334 0.284167,9.617501 0.631483,9.964817 0.347316,0.347315 1.472316,0.181482 2.5,-0.368518 C 49.742856,86.067252 50,84.695899 50,76.964816 50,69.662757 50.278214,68 51.5,68 c 1.242424,0 1.5,1.888889 1.5,11 0,8.823529 -0.280303,11 -1.416667,11 -0.779166,0 -1.622916,-0.5625 -1.875,-1.25 -0.366666,-1 -0.723333,-1 -1.783333,0 -1.432776,1.351676 -4.184706,1.656961 -5.258333,0.583333 z M 58,75 c 0,-12.666667 0.233333,-15 1.5,-15 1.111111,0 1.5,1.166667 1.5,4.5 0,4.87407 0.141896,5.029611 3.129664,3.430606 C 67.96402,65.878521 69,68.265838 69,79.15383 c 0,8.242814 -0.274489,10.014271 -1.632466,10.535375 -0.897856,0.34454 -2.56492,0.04411 -3.704586,-0.667625 C 62.166992,88.08734 61.485514,88.043457 61.21208,88.86376 61.003769,89.488692 60.195833,90 59.416667,90 58.257407,90 58,87.27451 58,75 Z m 7.788475,3.628247 C 65.527073,71.262825 65.312303,70.5 63.5,70.5 c -1.806651,0 -2.028519,0.765001 -2.295002,7.913171 -0.299483,8.033381 0.485203,10.026676 3.492793,8.872556 1.050092,-0.402958 1.310329,-2.468635 1.090684,-8.65748 z m 9.782954,9.800324 C 74.395109,87.252252 74,84.768707 74,78.551016 74,69.520422 74.901519,67.75 79.5,67.75 c 3.900977,0 5.5,1.998036 5.5,6.872445 V 79 h -4 c -3.981678,0 -4,0.01783 -4,3.893011 0,2.384978 0.533851,4.097869 1.378145,4.421855 C 79.95739,87.920879 82,86.220591 82,84.3 82,83.585 82.675,83 83.5,83 c 1.969849,0 1.924685,3.432458 -0.07143,5.428571 C 82.564286,89.292857 80.796429,90 79.5,90 78.203571,90 76.435714,89.292857 75.571429,88.428571 Z M 81.5,73.5 c 0,-2.333333 -0.444444,-3 -2,-3 -1.535499,0 -2.07414,0.773074 -2.319222,3.328622 -0.285894,2.9811 -0.07709,3.294313 2,3 C 81.017998,76.568297 81.5,75.876512 81.5,73.5 Z M 59.545455,45.545455 C 61.737801,43.353108 62,42.245884 62,35.180313 62,28.691572 61.627473,26.796126 59.92742,24.634859 57.304606,21.300492 53.677638,21.231453 50.454545,24.454545 48.252979,26.656112 48,27.742985 48,35 c 0,7.257015 0.252979,8.343888 2.454545,10.545455 C 51.804545,46.895455 53.85,48 55,48 c 1.15,0 3.195455,-1.104545 4.545455,-2.454545 z M 54,35 c 0,-4 0.428571,-7 1,-7 0.571429,0 1,3 1,7 0,4 -0.428571,7 -1,7 -0.571429,0 -1,-3 -1,-7 z M 74.281119,46.915809 78.062238,47.084692 77.781119,34.792346 77.5,22.5 H 75 c -2.476156,0 -2.50273,0.09299 -2.786212,9.75 C 72.056371,37.6125 71.510167,42 71,42 70.489833,42 69.943629,37.6125 69.786212,32.25 69.50273,22.59299 69.476156,22.5 67,22.5 h -2.5 l -0.281786,11.146786 c -0.2353,9.307912 -0.0078,11.420753 1.378939,12.80751 0.982698,0.982698 2.322558,1.381447 3.281786,0.976677 0.891583,-0.376226 3.322564,-0.60805 5.40218,-0.515164 z M 44.000136,39.75 c 9.2e-5,-4.908229 0.802752,-9.834024 2.484994,-15.25 3.172291,-10.213191 3.161032,-10.707194 -0.23513,-10.316422 -2.319955,0.26694 -2.990803,1.07745 -4.289856,5.182959 l -1.539857,4.866538 -1.460143,-4.866538 C 37.720936,15.236361 37.083895,14.452122 34.75,14.183578 31.313981,13.78822 31.293972,14.573886 34.5,24 c 1.749273,5.143076 2.5,9.499841 2.5,14.508486 0,3.936999 0.3,7.458181 0.666667,7.824847 C 38.033333,46.7 39.608333,47 41.166667,47 H 44 Z"
       id="path44"
       inkscape:connector-curvature="0" />
  </g>
  <g
     id="g22"
     transform="translate(285.63917,-6.3713094)">
    <path
       style="fill:#d0d0d0;fill-opacity:1"
       d="m 21.078947,83.416667 c 0.04798,-1.164943 0.284941,-1.4019 0.604167,-0.604167 0.288871,0.721875 0.253344,1.584375 -0.07895,1.916667 -0.332292,0.332291 -0.568641,-0.258334 -0.52522,-1.3125 z m 69,-1 c 0.04798,-1.164943 0.284941,-1.4019 0.604167,-0.604167 0.288871,0.721875 0.253344,1.584375 -0.07895,1.916667 -0.332292,0.332291 -0.568641,-0.258334 -0.52522,-1.3125 z m 0,-15 c 0.04798,-1.164943 0.284941,-1.4019 0.604167,-0.604167 0.288871,0.721875 0.253344,1.584375 -0.07895,1.916667 -0.332292,0.332291 -0.568641,-0.258334 -0.52522,-1.3125 z m -69,-1 c 0.04798,-1.164943 0.284941,-1.4019 0.604167,-0.604167 0.288871,0.721875 0.253344,1.584375 -0.07895,1.916667 -0.332292,0.332291 -0.568641,-0.258334 -0.52522,-1.3125 z M 38.730968,51.344063 c 0.677033,-0.273923 2.027033,-0.290597 3,-0.03705 C 42.703936,51.560557 42.15,51.784676 40.5,51.805055 38.85,51.825435 38.053936,51.61799 38.730968,51.344067 Z m 31,0 c 0.677033,-0.273923 2.027033,-0.290597 3,-0.03705 0.972968,0.25354 0.419032,0.477659 -1.230968,0.498038 -1.65,0.02038 -2.446064,-0.187065 -1.769032,-0.460988 z M 42.32814,39.5 c -0.0044,-3.85 0.17268,-5.547537 0.393592,-3.772304 0.220912,1.775232 0.224542,4.925232 0.0081,7 C 42.513323,44.802463 42.332577,43.35 42.32814,39.5 Z M 52.320074,35 c 0,-3.575 0.181495,-5.0375 0.403322,-3.25 0.221826,1.7875 0.221826,4.7125 0,6.5 -0.221827,1.7875 -0.403322,0.325 -0.403322,-3.25 z"
       id="path38"
       inkscape:connector-curvature="0" />
    <path
       style="fill:#b9b9b9;fill-opacity:1"
       d="m 106,107.62244 c 0,-0.20765 0.7875,-0.99515 1.75,-1.75 1.58606,-1.24387 1.62143,-1.2085 0.37756,0.37756 C 106.82119,107.91575 106,108.44548 106,107.62244 Z M 49.25,99.25845 c 3.7125,-0.192407 9.7875,-0.192407 13.5,0 3.7125,0.192406 0.675,0.349829 -6.75,0.349829 -7.425,0 -10.4625,-0.157423 -6.75,-0.349829 z M 77.157895,82 c 0,-1.375 0.226973,-1.9375 0.504386,-1.25 0.277412,0.6875 0.277412,1.8125 0,2.5 -0.277413,0.6875 -0.504386,0.125 -0.504386,-1.25 z M 38.309869,39.5 c 0.0056,-3.3 0.192301,-4.529441 0.414862,-2.732091 0.222562,1.79735 0.217969,4.49735 -0.0102,6 C 38.486352,44.270559 38.304256,42.8 38.309869,39.5 Z"
       id="path36"
       inkscape:connector-curvature="0" />
    <path
       style="fill:#a3a3a3;fill-opacity:1"
       d="m 39.75,99.337719 c 0.6875,-0.277412 1.8125,-0.277412 2.5,0 0.6875,0.277413 0.125,0.504386 -1.25,0.504386 -1.375,0 -1.9375,-0.226973 -1.25,-0.504386 z m 30,0 c 0.6875,-0.277412 1.8125,-0.277412 2.5,0 0.6875,0.277413 0.125,0.504386 -1.25,0.504386 -1.375,0 -1.9375,-0.226973 -1.25,-0.504386 z M 39.8125,46.316886 c 0.721875,-0.288871 1.584375,-0.253344 1.916667,0.07895 0.332291,0.332292 -0.258334,0.568641 -1.3125,0.52522 -1.164943,-0.04798 -1.4019,-0.284941 -0.604167,-0.604167 z m 33.9375,0.02083 c 0.6875,-0.277412 1.8125,-0.277412 2.5,0 0.6875,0.277413 0.125,0.504386 -1.25,0.504386 -1.375,0 -1.9375,-0.226973 -1.25,-0.504386 z M 55,27 C 54.098708,26.41754 53.975367,26.024514 54.690983,26.015313 55.346024,26.006891 56.160081,26.45 56.5,27 c 0.767305,1.241525 0.421123,1.241525 -1.5,0 z"
       id="path34"
       inkscape:connector-curvature="0" />
    <path
       style="fill:#8c8c8c;fill-opacity:1"
       d="m 36.8125,99.316886 c 0.721875,-0.288871 1.584375,-0.253344 1.916667,0.07895 0.332291,0.332292 -0.258334,0.568641 -1.3125,0.52522 -1.164943,-0.04798 -1.4019,-0.284941 -0.604167,-0.604167 z M 1.4562031,57 c 0,-22.275 0.1316718,-31.3875 0.292604,-20.25 0.1609321,11.1375 0.1609321,29.3625 0,40.5 C 1.5878749,88.3875 1.4562031,79.275 1.4562031,57 Z M 41.369965,78 c 0,-5.775 0.165274,-8.1375 0.367277,-5.25 0.202002,2.8875 0.202002,7.6125 0,10.5 -0.202003,2.8875 -0.367277,0.525 -0.367277,-5.25 z m 23.950109,1 c 0,-3.575 0.181495,-5.0375 0.403322,-3.25 0.221826,1.7875 0.221826,4.7125 0,6.5 -0.221827,1.7875 -0.403322,0.325 -0.403322,-3.25 z M 82.8125,82.316886 c 0.721875,-0.288871 1.584375,-0.253344 1.916667,0.07895 0.332291,0.332292 -0.258334,0.568641 -1.3125,0.52522 -1.164943,-0.04798 -1.4019,-0.284941 -0.604167,-0.604167 z"
       id="path32"
       inkscape:connector-curvature="0" />
    <path
       style="fill:#767676;fill-opacity:1"
       d="m 32.8125,90.316886 c 0.721875,-0.288871 1.584375,-0.253344 1.916667,0.07895 0.332291,0.332292 -0.258334,0.568641 -1.3125,0.52522 -1.164943,-0.04798 -1.4019,-0.284941 -0.604167,-0.604167 z m 16.779357,-0.168259 c -0.3381,-0.547057 0.254211,-0.740136 1.373004,-0.447565 1.857675,0.485793 1.986481,-0.120097 2.305159,-10.843259 L 53.607559,67.5 53.553779,78.988028 c -0.04622,9.873809 -0.286576,11.532618 -1.710542,11.805368 -0.91122,0.174538 -1.924341,-0.115608 -2.25138,-0.644769 z m 7.96578,-0.05537 C 57.249419,89.594551 57.897861,89.422035 58.99862,89.70989 61.333607,90.320503 61.628767,91 59.559017,91 58.766476,91 57.865855,90.591966 57.557637,90.093259 Z M 61.336206,79 c 0,-4.125 0.176518,-5.8125 0.392262,-3.75 0.215745,2.0625 0.215745,5.4375 0,7.5 -0.215744,2.0625 -0.392262,0.375 -0.392262,-3.75 z M 49.354955,76.5 c 0.003,-4.95 0.17464,-6.848922 0.381317,-4.219827 0.206676,2.629095 0.204183,6.679095 -0.0055,9 C 49.521007,83.601078 49.351908,81.45 49.354955,76.5 Z m 30.406704,2.792739 c 1.243913,-0.239193 3.043913,-0.230112 4,0.02018 C 84.717747,79.563212 83.7,79.758916 81.5,79.747817 79.3,79.736717 78.517747,79.531932 79.761659,79.292739 Z M 61.078947,64.25 c 0.0869,-5.228429 0.57238,-4.805454 1.147777,1 0.204421,2.0625 0.01204,3.75 -0.427525,3.75 -0.439559,0 -0.763673,-2.1375 -0.720252,-4.75 z M 48.320074,35 c 0,-3.575 0.181495,-5.0375 0.403322,-3.25 0.221826,1.7875 0.221826,4.7125 0,6.5 -0.221827,1.7875 -0.403322,0.325 -0.403322,-3.25 z M 36.816602,1.2509808 c 11.174131,-0.1610488 29.174131,-0.1608277 40,4.914e-4 C 87.642471,1.4127913 78.5,1.5445586 56.5,1.5442883 34.5,1.544018 25.642471,1.4120296 36.816602,1.2509808 Z"
       id="path30"
       inkscape:connector-curvature="0" />
    <path
       style="fill:#606060;fill-opacity:1"
       d="m 36.816602,111.25098 c 11.174131,-0.16105 29.174131,-0.16083 40,4.9e-4 10.825869,0.16132 1.683398,0.29309 -20.316602,0.29282 -22,-2.7e-4 -30.857529,-0.13226 -19.683398,-0.29331 z M 35.391721,77 c 0,-7.425 0.157423,-10.4625 0.349829,-6.75 0.192407,3.7125 0.192407,9.7875 0,13.5 -0.192406,3.7125 -0.349829,0.675 -0.349829,-6.75 z m 22.005673,-2 c 0,-7.975 0.155301,-11.2375 0.345113,-7.25 0.189811,3.9875 0.189811,10.5125 0,14.5 -0.189812,3.9875 -0.345113,0.725 -0.345113,-7.25 z m -12.036898,2 c 0,-5.225 0.168545,-7.3625 0.374543,-4.75 0.205999,2.6125 0.205999,6.8875 0,9.5 -0.205998,2.6125 -0.374543,0.475 -0.374543,-4.75 z M 20.252183,75.5 c -0.0111,-2.2 0.184605,-3.217747 0.434897,-2.261659 0.250293,0.956087 0.259374,2.756087 0.02018,4 C 20.468068,78.482253 20.263283,77.7 20.252183,75.5 Z M 40.078947,61.416667 c 0.04798,-1.164943 0.284941,-1.4019 0.604167,-0.604167 0.288871,0.721875 0.253344,1.584375 -0.07895,1.916667 -0.332292,0.332291 -0.568641,-0.258334 -0.52522,-1.3125 z M 64.365231,33.5 c -0.0026,-5.5 0.163194,-7.877585 0.368439,-5.283522 0.205246,2.594063 0.207376,7.094063 0.0047,10 C 64.535763,41.122415 64.367834,39 64.365231,33.5 Z m -3.055362,1 c 0.0056,-3.3 0.192301,-4.529441 0.414862,-2.732091 0.222562,1.79735 0.217969,4.49735 -0.0102,6 C 61.486352,39.270559 61.304256,37.8 61.309869,34.5 Z"
       id="path28"
       inkscape:connector-curvature="0" />
    <path
       style="fill:#494949;fill-opacity:1"
       d="m 86,97.622445 c 0,-0.207656 0.7875,-0.995156 1.75,-1.75 C 89.336056,94.628574 89.371426,94.663944 88.127555,96.25 86.821186,97.915748 86,98.445479 86,97.622445 Z M 111.45522,57 c 0,-21.725 0.13209,-30.6125 0.29353,-19.75 0.16144,10.8625 0.16144,28.6375 0,39.5 -0.16144,10.8625 -0.29353,1.975 -0.29353,-19.75 z M 31.391721,77 c 0,-7.425 0.157423,-10.4625 0.349829,-6.75 0.192407,3.7125 0.192407,9.7875 0,13.5 -0.192406,3.7125 -0.349829,0.675 -0.349829,-6.75 z m 37.928353,2 c 0,-3.575 0.181495,-5.0375 0.403322,-3.25 0.221826,1.7875 0.221826,4.7125 0,6.5 -0.221827,1.7875 -0.403322,0.325 -0.403322,-3.25 z m -49.125125,2.5 c 0.02038,-1.65 0.244498,-2.203936 0.498042,-1.230968 0.253543,0.972967 0.236869,2.322967 -0.03705,3 C 20.382014,83.946064 20.174569,83.15 20.194949,81.5 Z M 85.232003,76 c 0,-1.925 0.205795,-2.7125 0.457323,-1.75 0.251527,0.9625 0.251527,2.5375 0,3.5 -0.251528,0.9625 -0.457323,0.175 -0.457323,-1.75 z M 20.194949,69.5 c 0.02038,-1.65 0.244498,-2.203936 0.498042,-1.230968 0.253543,0.972967 0.236869,2.322967 -0.03705,3 C 20.382014,71.946064 20.174569,71.15 20.194949,69.5 Z m 5.883998,-8.083333 c 0.04798,-1.164943 0.284941,-1.4019 0.604167,-0.604167 0.288871,0.721875 0.253344,1.584375 -0.07895,1.916667 -0.332292,0.332291 -0.568641,-0.258334 -0.52522,-1.3125 z M 77.378169,35 c 0,-6.325 0.162369,-8.9125 0.360819,-5.75 0.198451,3.1625 0.198451,8.3375 0,11.5 -0.19845,3.1625 -0.360819,0.575 -0.360819,-5.75 z m -8.023214,-2.5 c 0.003,-4.95 0.17464,-6.848922 0.381317,-4.219827 0.206676,2.629095 0.204183,6.679095 -0.0055,9 C 69.521007,39.601078 69.351908,37.45 69.354955,32.5 Z M 72.360496,32 c 0,-5.225 0.168545,-7.3625 0.374543,-4.75 0.205999,2.6125 0.205999,6.8875 0,9.5 -0.205998,2.6125 -0.374543,0.475 -0.374543,-4.75 z M 33.75,14.337719 c 0.6875,-0.277412 1.8125,-0.277412 2.5,0 0.6875,0.277413 0.125,0.504386 -1.25,0.504386 -1.375,0 -1.9375,-0.226973 -1.25,-0.504386 z m 11,0 c 0.6875,-0.277412 1.8125,-0.277412 2.5,0 0.6875,0.277413 0.125,0.504386 -1.25,0.504386 -1.375,0 -1.9375,-0.226973 -1.25,-0.504386 z M 106,6.5 C 105.31531,5.675 104.98011,5 105.25511,5 c 0.275,0 1.0602,0.675 1.74489,1.5 0.68469,0.825 1.01989,1.5 0.74489,1.5 -0.275,0 -1.0602,-0.675 -1.74489,-1.5 z"
       id="path26"
       inkscape:connector-curvature="0" />
    <path
       style="fill:#333333;fill-opacity:1"
       d="M 9.9898309,108.75 C 8.1715663,107.5125 5.7425188,105.2295 4.5919476,103.67667 2.5432314,100.91169 2.5,99.93675 2.5,56.5 2.5,13.263188 2.5519024,12.077143 4.5617886,9.3851191 5.6957724,7.8662711 7.8662711,5.6957724 9.3851191,4.5617886 12.077143,2.5519024 13.263188,2.5 56.5,2.5 c 43.43675,0 44.41169,0.043231 47.17667,2.0919476 1.55283,1.1505712 3.83583,3.5796187 5.07333,5.3978833 2.2471,3.3016691 2.25,3.3613611 2.25,46.2569231 0,48.559426 0.1011,47.851576 -7.46798,52.287346 L 99.324285,111 H 56.310026 C 13.348849,111 13.291687,110.997 9.9898309,108.75 Z M 86.247058,97.759456 c 3.764023,-2.468786 4.740959,-7.210395 4.747365,-23.041575 0.0099,-24.357616 0.635994,-23.960364 -37.082215,-23.52677 L 27.04206,51.5 24.462458,54.0813 c -3.367739,3.369954 -4.915427,13.743877 -4.063448,27.236681 0.590986,9.359462 2.140173,14.661151 4.756588,16.278184 3.023415,1.868573 9.183371,2.259698 32.891075,2.08841 22.394979,-0.161804 25.874062,-0.399306 28.200385,-1.925119 z M 31.779025,76.75 C 31.507741,63.86759 31.437579,63.491135 29.25,63.180449 27.804043,62.97509 27,62.171048 27,60.930449 27,59.221178 27.744728,59 33.5,59 c 5.755272,0 6.5,0.221178 6.5,1.930449 0,1.240599 -0.804043,2.044641 -2.25,2.25 C 35.562421,63.491135 35.492259,63.86759 35.220975,76.75 34.994701,87.495031 34.669343,90 33.5,90 32.330657,90 32.005299,87.495031 31.779025,76.75 Z m 10.651221,11.928821 c -1.047871,-2.73071 0.04675,-21.009074 1.282686,-21.418737 0.883156,-0.292731 1.290981,2.268118 1.5,9.418939 C 45.477716,85.737644 45.655251,86.5 47.5,86.5 c 1.823078,0 2.04423,-0.833333 2.5,-9.420358 0.332919,-6.272437 0.917702,-9.558359 1.75,-9.833334 C 52.701826,66.931844 53,69.596413 53,78.416667 53,87.743464 52.724021,90 51.583333,90 c -0.779166,0 -1.622916,-0.5625 -1.875,-1.25 -0.366666,-1 -0.723333,-1 -1.783333,0 -1.738048,1.639668 -4.853728,1.599308 -5.494754,-0.07118 z M 58.22475,74.684505 C 58.424966,63.758881 58.840754,59.551073 59.75,59.248837 c 0.890558,-0.296024 1.25,1.046228 1.25,4.66783 0,5.477599 0.116236,5.626677 3.129664,4.013939 3.970083,-2.124724 4.966146,0.33019 4.653662,11.469497 L 68.5,89.5 l -5.27525,0.102335 -5.275251,0.102334 z m 7.57215,4.40179 C 66.107996,71.340321 65.435708,69.511837 62.667217,70.574206 61.323759,71.08974 61,72.61727 61,78.440322 c 0,7.603042 0.428968,8.814355 2.951236,8.333643 1.198656,-0.228449 1.61588,-1.966294 1.845664,-7.68767 z m 9.325646,9.561364 C 73.589561,86.800525 72.700828,76.183321 73.770876,72.5 c 0.479344,-1.65 2.025138,-3.648231 3.435098,-4.440512 2.276256,-1.27907 2.856661,-1.248468 5.178795,0.273053 C 84.560472,69.758116 85,70.798523 85,74.523053 V 79 h -4.060365 -4.060366 l 0.310366,3.741683 c 0.358716,4.324593 3.54571,5.986362 4.497872,2.345291 C 81.987673,83.939138 82.855779,83 83.616631,83 c 1.704094,0 1.835238,4.148131 0.183369,5.8 -1.622186,1.622186 -7.287268,1.52273 -8.677454,-0.152341 z M 82,74.122445 C 82,71.870343 79.505719,69.569414 78.043805,70.472927 77.469712,70.827736 77,72.216476 77,73.559017 77,75.496066 77.516118,76 79.5,76 81.278988,76 82,75.458504 82,74.122445 Z M 43,41.162814 c 0,-3.585562 1.14569,-9.653174 2.970125,-15.729875 2.983003,-9.93558 2.875013,-11.934928 -0.608403,-11.264084 -1.293496,0.249105 -2.291366,2.004672 -3.314257,5.830818 l -1.463539,5.474402 -1.586178,-5.481858 C 37.923313,16.278953 36.82697,14.397776 35.599565,14.1614 32.165925,13.500141 32.057639,15.521593 35.031346,24.768705 37.071588,31.113088 38,36.032886 38,40.500051 38,46.766663 38.089746,47 40.5,47 42.881141,47 43,46.722479 43,41.162814 Z m 16.55887,4.417797 C 61.236036,44.354238 61.5,42.914386 61.5,34.992258 c 0,-8.429542 -0.190383,-9.323127 -2.360784,-11.080611 -3.19769,-2.589332 -5.738482,-2.40329 -8.785032,0.64326 -2.408716,2.408716 -2.534859,3.042743 -2.204545,11.080625 0.289095,7.034867 0.689797,8.773919 2.291491,9.945094 2.484993,1.817053 6.632761,1.817047 9.11774,-1.5e-5 z M 53.606989,41.418213 C 52.64785,38.918736 52.929793,29.6536 54.015313,28 c 1.590414,-2.42272 2.951495,0.633808 2.969374,6.668213 C 57.000802,40.107083 56.31169,43 55,43 54.567688,43 53.940833,42.288196 53.606989,41.418213 Z M 77.5,35 V 23.5 L 74.78697,23.187145 72.07394,22.87429 71.78697,32.687145 C 71.629137,38.084215 71.115819,42.275 70.646264,42 c -0.469554,-0.275 -0.919554,-4.55 -1,-9.5 L 69.5,23.5 66.75,23.183578 64,22.867155 v 10.132164 c 0,13.208592 0.43376,13.974599 7.762755,13.708773 L 77.5,46.5 Z"
       id="path24"
       inkscape:connector-curvature="0" />
  </g>
  <path
     style="fill:#7e7e7e"
     d="M 10.372217,109.39936 C 5.6887466,107.75019 1.1185566,102.76273 0.33152662,98.441911 c -0.30519,-1.67545 -0.42088,-22.17127 -0.2571,-45.54627 0.2952,-42.1298 0.31722,-42.52724 2.52809998,-45.6267104 4.79257,-6.71882004 5.58432,-6.83804004 47.7696904,-7.19334004 20.9,-0.17602 40.33979,-0.034 43.19954,0.31565 6.678333,0.81650004 11.225713,3.88284004 14.050463,9.47436004 2.22561,4.4055304 2.24976,4.8987304 2.22804,45.4919304 -0.0202,37.67646 -0.17243,41.36577 -1.85877,45.038109 -2.25106,4.90212 -4.81996,7.27399 -9.803073,9.05119 -5.64892,2.01466 -82.07729,1.97334 -87.8162,-0.0475 z m 72.7909,-12.774749 c 1.4513,-0.95093 3.21707,-2.74147 3.92392,-3.97897 1.80573,-3.16134 1.78128,-32.07519 -0.0308,-36.36631 -2.37042,-5.61342 -3.86722,-5.88369 -32.58438,-5.88369 -14.35482,0 -27.28196,0.33221 -28.72697,0.73825 -5.06572,1.42344 -6.30996,4.9615 -6.7122,19.08643 -0.44432,15.60287 0.26414,20.8949 3.26414,24.38262 3.16096,3.67484 7.6235,4.17559 35.15143,3.94442 19.97307,-0.16773 23.43091,-0.42628 25.71482,-1.92275 z m -53.78156,-7.90506 c -0.26653,-0.72815 -0.60267,-6.94891 -0.74697,-13.82391 -0.24654,-11.74588 -0.38303,-12.5 -2.26237,-12.5 -1.31273,0 -2.10981,-0.77319 -2.31955,-2.25 -0.30746,-2.16486 -0.0305,-2.25 7.31955,-2.25 7.35005,0 7.62701,0.0851 7.31955,2.25 -0.20974,1.47681 -1.00682,2.25 -2.31955,2.25 -1.87644,0 -2.03089,0.83333 -2.5,13.48851 -0.43841,11.82702 -0.71593,13.52982 -2.25302,13.8239 -0.96417,0.18447 -1.9711,-0.26036 -2.23764,-0.9885 z m 11.15733,0.50942 c -0.36667,-0.36666 -0.66667,-5.79966 -0.66667,-12.07332 0,-10.3244 0.16604,-11.37488 1.75,-11.07175 1.5008,0.28722 1.79088,1.73177 2.03707,10.1443 0.20897,7.14077 0.61704,9.70041 1.5,9.40877 0.78644,-0.25975 1.38874,-3.71302 1.71293,-9.82097 0.45577,-8.58703 0.67692,-9.42036 2.5,-9.42036 1.86494,0 2.01911,0.76097 2.28293,11.26875 0.23646,9.41818 0.0291,11.36615 -1.26274,11.86187 -0.85011,0.32622 -2.11752,0.11853 -2.81646,-0.46154 -0.80394,-0.66721 -1.80955,-0.71394 -2.73727,-0.12719 -1.74062,1.10088 -3.37929,1.21195 -4.29979,0.29144 z m 14.77324,-0.62932 c -0.27352,-0.71279 -0.3719,-7.80029 -0.21861,-15.75 0.26405,-13.69444 0.3838,-14.45401 2.2787,-14.45401 1.68626,0 2,0.66667 2,4.24975 0,4.22956 0.015,4.24693 3.1639,3.65486 2.52188,-0.47417 3.38429,-0.18308 4.25,1.43451 1.14938,2.14764 1.46884,15.13134 0.46448,18.87776 -0.74168,2.76656 -3.94981,3.88129 -6.08899,2.11574 -1.26883,-1.04722 -1.70474,-1.06491 -2.03534,-0.0826 -0.55214,1.64048 -3.17913,1.6088 -3.81414,-0.046 z m 7.9531,-4.2858 c 0.91488,-2.38413 0.69923,-11.72417 -0.3074,-13.31393 -0.48607,-0.76764 -1.49168,-1.16356 -2.23468,-0.87981 -1.89097,0.72214 -1.29831,15.77553 0.62109,15.77553 0.7227,0 1.58715,-0.71181 1.92099,-1.58179 z m 9.67957,2.94693 c -2.96914,-3.77465 -3.01654,-16.42119 -0.0726,-19.36514 2.32263,-2.32263 5.82002,-2.58331 8.48772,-0.63264 1.36286,0.99655 1.88927,2.69149 1.94113,6.25 l 0.0712,4.88264 -4.25,0.3075 c -4.37268,0.31637 -5.19101,1.5767 -3.64301,5.61071 0.86956,2.26603 3.39301,1.955 3.39301,-0.41821 0,-1.46667 0.66667,-2 2.5,-2 1.44579,0 2.5,0.57566 2.5,1.36514 0,2.47783 -4.07254,6.63486 -6.5,6.63486 -1.3529,0 -3.23668,-1.12108 -4.42742,-2.63486 z m 6.37165,-13.2749 c 0.96464,-1.56082 -0.616,-4.20364 -2.32006,-3.87912 -0.89329,0.17012 -1.76797,1.31721 -1.94372,2.54909 -0.24011,1.68299 0.18025,2.23979 1.69098,2.23979 1.1058,0 2.26355,-0.40939 2.5728,-0.90976 z m -38.33708,-36.60031 c 0.33393,-4.39446 1.56562,-10.91493 2.7371,-14.48993 2.69568,-8.22644 2.6938,-9.21825 -0.0167,-8.81955 -1.69256,0.24896 -2.51117,1.53442 -3.70601,5.81955 l -1.53359,5.5 -1.65977,-5.5 c -1.39204,-4.61284 -2.07062,-5.54969 -4.20691,-5.80802 l -2.54714,-0.30802 2.91291,9.05807 c 1.95712,6.08586 2.91292,11.1362 2.91292,15.39135 0,6.72189 0.4723,7.91271 2.95124,7.44112 1.1811,-0.22469 1.69289,-2.19136 2.15591,-8.28457 z m 16.06411,6.85508 c 2.54809,-2.30599 2.67887,-17.74815 0.17375,-20.51627 -2.00733,-2.21808 -6.64424,-2.38665 -8.7141,-0.31679 -3.27197,3.27196 -3.18407,16.98363 0.13295,20.73805 1.95006,2.20721 6.02259,2.25324 8.4074,0.095 z m -5.72221,-3.61718 c -0.3036,-0.79117 -0.41633,-4.31609 -0.25052,-7.83316 0.23023,-4.8835 0.65595,-6.39467 1.80147,-6.39467 1.1985,0 1.5,1.49074 1.5,7.41667 0,5.04277 -0.39992,7.54997 -1.24947,7.83315 -0.68721,0.22907 -1.49788,-0.23082 -1.80148,-1.02199 z m 17.47595,4.02217 c 1.06,-1 1.41667,-1 1.78333,0 0.25209,0.6875 1.32084,1.25 2.375,1.25 1.78241,0 1.91667,-0.84058 1.91667,-12 0,-11.33333 -0.11111,-12 -2,-12 -1.84848,0 -2,0.66667 -2,8.8 0,8.23101 -0.84828,11.2 -3.2,11.2 -0.44,0 -0.8,-4.5 -0.8,-10 0,-9.33333 -0.13333,-10 -2,-10 -1.88235,0 -2,0.66667 -2,11.33333 0,6.23334 0.3,11.63334 0.66667,12 1.07362,1.07363 3.82555,0.76834 5.25833,-0.58333 z"
     id="path20"
     inkscape:connector-curvature="0" />
</svg>
